<?xml version="1.0" encoding="UTF-8" standalone="no"?>
<svg width="23px" height="18px" viewBox="0 0 23 18" version="1.1" xmlns="http://www.w3.org/2000/svg" xmlns:xlink="http://www.w3.org/1999/xlink">
    <!-- Generator: Sketch 39.1 (31720) - http://www.bohemiancoding.com/sketch -->
    <title>Icon_black_Envelope_23x18</title>
    <desc>Created with Sketch.</desc>
    <defs></defs>
    <g id="A" stroke="none" stroke-width="1" fill="none" fill-rule="evenodd">
        <g id="Icon_black_Envelope_23x18">
            <g id="Page-1">
                <path d="M14.4713,8.5852 C14.1643,8.2702 13.6623,8.2642 13.3483,8.5722 C13.0343,8.8802 13.0283,9.3852 13.3343,9.7002 L20.4753,17.0472 C20.7813,17.3622 21.2843,17.3682 21.5983,17.0602 C21.9123,16.7522 21.9183,16.2472 21.6113,15.9322 L14.4713,8.5852 Z" id="Fill-1" fill="#000000"></path>
                <path d="M9.0075,9.6725 C9.3075,9.3635 9.3025,8.8695 8.9955,8.5675 C8.6885,8.2655 8.1975,8.2715 7.8975,8.5795 L0.7215,15.9595 C0.4215,16.2685 0.4265,16.7635 0.7335,17.0645 C1.0405,17.3665 1.5315,17.3615 1.8315,17.0525 L9.0075,9.6725 Z" id="Fill-3" fill="#000000"></path>
                <path d="M9.429,9.796 C10.356,10.658 11.994,10.651 12.913,9.796 L21.627,1.703 C21.909,1.442 21.907,1.019 21.624,0.759 C21.341,0.5 20.883,0.501 20.601,0.763 L11.887,8.851 C11.521,9.114 10.736,9.11 10.457,8.851 L1.738,0.699 C1.458,0.436 1,0.433 0.715,0.692 C0.431,0.951 0.428,1.374 0.708,1.636 L9.429,9.796 Z" id="Fill-5" fill="#000000"></path>
                <path d="M21.045,17.2876 L1.293,17.2876 C0.855,17.2876 0.5,16.9326 0.5,16.4946 L0.5,1.2926 C0.5,0.8546 0.855,0.4996 1.293,0.4996 L21.045,0.4996 C21.483,0.4996 21.838,0.8546 21.838,1.2926 L21.838,16.4946 C21.838,16.9326 21.483,17.2876 21.045,17.2876 L21.045,17.2876 Z" id="Stroke-7" stroke="#000000"></path>
            </g>
        </g>
    </g>
</svg>