<?xml version="1.0" encoding="UTF-8" standalone="no"?>
<svg width="25px" height="24px" viewBox="0 0 25 24" version="1.1" xmlns="http://www.w3.org/2000/svg" xmlns:xlink="http://www.w3.org/1999/xlink">
    <!-- Generator: Sketch 39.1 (31720) - http://www.bohemiancoding.com/sketch -->
    <title>Icon_black_Hand_25x24</title>
    <desc>Created with Sketch.</desc>
    <defs></defs>
    <g id="A" stroke="none" stroke-width="1" fill="none" fill-rule="evenodd">
        <g id="Icon_black_Hand_25x24" fill="#000000">
            <path d="M14.305262,15.5398589 C14.6366112,15.8712081 15.1766498,15.8695266 15.5116065,15.5345699 L22.958534,8.08764245 C23.2928014,7.753375 23.2951721,7.21264722 22.9638229,6.881298 C22.6324737,6.54994878 22.0924351,6.55163026 21.7574784,6.88658692 L14.3105509,14.3335144 C13.9755943,14.6684711 13.9739128,15.2085096 14.305262,15.5398589 Z M11.4257964,12.9243022 C11.7571456,13.2556514 12.2971842,13.2539699 12.6321408,12.9190133 L21.5987791,3.95237498 C21.9330466,3.61810753 21.9361005,3.07806295 21.604068,2.74603054 C21.2720356,2.41399812 20.7326803,2.41636279 20.3977236,2.75131945 L11.4310853,11.7179577 C11.0961286,12.0529144 11.093764,12.5922698 11.4257964,12.9243022 Z M14.5737479,20.0382626 C11.6087612,23.0032494 6.80671425,23.0243028 3.86761249,20.085201 C0.928510734,17.1460992 0.94956412,12.3440523 3.91455089,9.37906557 L9.19046297,4.10315349 C9.94167963,5.39195493 9.7585928,7.0849011 8.64689506,8.19659884 L6.36422742,10.4792665 C6.02995997,10.8135339 6.02690608,11.3535785 6.3589385,11.6856109 C7.81755827,13.1442307 8.36688143,14.7811292 7.90392891,16.2948345 C7.80923948,16.6067797 7.90045985,16.9295751 8.11429966,17.1434149 C8.20994686,17.2390621 8.33039363,17.3126425 8.46882006,17.3545794 C8.91974579,17.4884679 9.39708966,17.2311126 9.53424818,16.7796847 C10.1197294,14.8647075 9.62479317,12.8741829 8.14422039,11.1013846 L17.7780152,1.46758979 C18.1122826,1.13332234 18.1146533,0.592594566 17.7833041,0.261245344 C17.4512717,-0.0707870724 16.9112271,-0.067733191 16.5769596,0.266534262 L11.3361973,5.50729656 C11.2721587,4.30605939 10.7908246,3.12586506 9.87807704,2.21311751 C9.54672781,1.88176829 9.00600004,1.88413897 8.67173259,2.21840643 L2.71212296,8.17801606 C-0.920709511,11.8108485 -0.946510289,17.6957234 2.65460672,21.2968404 C6.25572373,24.8979574 12.1405986,24.8721566 15.773431,21.2393241 L24.7765975,12.2361577 C25.110865,11.9018902 25.1132357,11.3611624 24.7818865,11.0298132 C24.4505372,10.698464 23.9098095,10.7008347 23.575542,11.0351021 L14.5737479,20.0382626 Z" id="Hand-Wave"></path>
        </g>
    </g>
</svg>