<?xml version="1.0" encoding="UTF-8" standalone="no"?>
<svg width="25px" height="23px" viewBox="0 0 25 23" version="1.1" xmlns="http://www.w3.org/2000/svg" xmlns:xlink="http://www.w3.org/1999/xlink">
    <!-- Generator: Sketch 39.1 (31720) - http://www.bohemiancoding.com/sketch -->
    <title>Icon_over_black_Heart_25x23 Copy 6</title>
    <desc>Created with Sketch.</desc>
    <defs></defs>
    <g id="A" stroke="none" stroke-width="1" fill="none" fill-rule="evenodd">
        <g id="Icon_over_black_Heart_25x23-Copy-6" stroke="#000000" stroke-width="1.5" fill="#000000">
            <path d="M11.4694674,21.5523303 L2.91473103,12.6331845 C1.67979533,11.3464399 1,9.63241133 1,7.80748461 C1,5.9825579 1.67979533,4.26934475 2.91473103,2.98260018 C5.37066586,0.420527021 9.31936309,0.33001457 11.9030499,2.77874331 L12.4992257,3.34383456 L13.0961759,2.77874331 C15.6798627,0.33327628 19.6301084,0.422973303 22.085269,2.98260018 C23.3194304,4.26852933 23.9992257,5.98092704 24,7.80585376 C24,9.63078047 23.3209789,11.3456245 22.0868175,12.6331845 L13.5274355,21.5547766 C13.2448327,21.8515922 12.8724163,22 12.5,22 C12.1268094,22 11.7536188,21.8507768 11.4694674,21.5523303 Z" id="Heart"></path>
        </g>
    </g>
</svg>