<?xml version="1.0" encoding="utf-8"?>
<!-- Generator: Adobe Illustrator 16.0.0, SVG Export Plug-In . SVG Version: 6.00 Build 0)  -->
<!DOCTYPE svg PUBLIC "-//W3C//DTD SVG 1.1//EN" "http://www.w3.org/Graphics/SVG/1.1/DTD/svg11.dtd">
<svg version="1.1" id="Layer_1" xmlns="http://www.w3.org/2000/svg" xmlns:xlink="http://www.w3.org/1999/xlink" x="0px" y="0px"
	 width="130px" height="36.532px" viewBox="0 0 130 36.532" enable-background="new 0 0 130 36.532" xml:space="preserve">
<g>
	<path fill="#009DDC" d="M68.86,16.982c-4.486,0-7.229-2.506-7.229-7.421V0.018h3.675v9.448c0,2.719,1.359,4.127,3.602,4.127
		c2.244,0,3.604-1.36,3.604-4.008V0.018h3.674v9.424C76.186,14.5,73.347,16.982,68.86,16.982z"/>
	<path fill="#009DDC" d="M90.214,16.72L82.126,6.103V16.72H78.5V0.018h3.387l7.827,10.283V0.018h3.626V16.72H90.214z"/>
	<path fill="#009DDC" d="M19.636,36.651h-3.197l-3.77-10.928l-3.77,10.928H5.703L0,19.833h3.937L7.396,31.14l3.746-11.355h3.15
		l3.746,11.355l3.459-11.307h3.842L19.636,36.651z"/>
	<path fill="#009DDC" d="M33.571,36.818c-5.154,0-8.852-3.842-8.852-8.59v-0.047c0-4.748,3.746-8.634,8.899-8.634
		c5.154,0,8.852,3.839,8.852,8.586v0.048C42.47,32.93,38.724,36.818,33.571,36.818z M38.629,28.181c0-2.863-2.1-5.248-5.058-5.248
		c-2.959,0-5.011,2.337-5.011,5.2v0.048c0,2.863,2.1,5.249,5.058,5.249c2.959,0,5.011-2.338,5.011-5.202V28.181z"/>
	<path fill="#009DDC" d="M57.144,36.532V25.628l-4.7,7.134h-0.095L47.696,25.7v10.832h-3.603V19.833h3.96l4.39,7.06l4.39-7.06h3.96
		v16.698H57.144z"/>
	<path fill="#009DDC" d="M63.634,36.532V19.833h12.599v3.267h-8.948v3.386h7.872v3.27h-7.872v3.507h9.067v3.269H63.634z"/>
	<path fill="#009DDC" d="M90.167,36.532l-8.089-10.618v10.618h-3.627V19.833h3.388l7.826,10.28v-10.28h3.626v16.698H90.167z"/>
	<path fill="#009DDC" d="M55.332,3.696c1.328,2.189,1.053,5.523-0.548,7.496c-1.77,2.34-4.691,3.352-7.573,2.555
		c-2.621-0.686-4.757-3.189-4.999-5.895c-0.327-2.867,1.006-5.482,3.431-6.912c1.869-1.15,4.75-1.281,6.698-0.19
		C53.523,1.325,54.712,2.501,55.332,3.696z M49.328,0.325c0.025,0.261,0.025,0.628,0,0.929c0.006-0.047,0.053-0.047,0.079-0.065
		c0.091,0.033,0.091,0.143,0.065,0.222h-0.021c0.471-0.032,0.923,0.084,1.354,0.216c0.451,0.059,0.843,0.601,1.287,0.313
		c0.125,0.137,0.34,0.007,0.405,0.221c0.171,0.034,0.262,0.205,0.38,0.314c-0.013,0.158,0.13,0.23,0.183,0.347v-0.02
		c0.15-0.268,0.385-0.503,0.647-0.641c-0.935-0.888-2.079-1.463-3.327-1.692C50.04,0.396,49.661,0.416,49.328,0.325z M44.589,2.174
		l0.772,0.739c0.967-0.94,2.208-1.477,3.574-1.523c-0.052-0.326-0.033-0.699-0.014-1.031C47.263,0.45,45.819,1.077,44.589,2.174z
		 M54.234,0.573l0.504,0.504c0.509,0.784,1.222,1.56,1.928,2.058c-0.15-0.314-0.183-0.68-0.341-0.995
		C56.013,1.266,55.039,0.841,54.234,0.573z M43.995,0.671c-0.621,0.249-1.293,0.451-1.757,1.032c-0.359,0.47-0.47,1.033-0.653,1.569
		l0.549-0.471C42.97,2.22,43.185,1.272,43.995,0.671z M50.131,0.887l-0.471,0.208c-0.052,0.027-0.215-0.058-0.189,0.08
		c0.09,0.059,0.183,0.124,0.294,0.137c0.294-0.131,0.647,0.085,0.896-0.189C50.589,0.926,50.328,0.92,50.131,0.887z M56.137,1.488
		c0.693,0.458,0.647,1.301,0.895,1.986c0.065,0.288,0.242,0.549,0.26,0.836c-0.372-1.078-1.626-1.196-2.084-2.215l0.145,0.594
		c0.352,1.157,1.731,1.438,2.254,2.484c-0.163-0.759,0.124-1.549-0.104-2.294C57.313,2.239,56.784,1.678,56.137,1.488z M40.969,2.52
		c-0.529,0.778-0.099,1.856-0.249,2.778c0.191-0.378,0.557-0.738,0.876-1.006c0.739-0.477,1.4-1.234,1.425-2.084
		c-0.392,1.005-1.687,1.137-2.006,2.208h-0.033c0.477-0.889,0.21-2.144,1.117-2.804C41.623,1.75,41.218,2.103,40.969,2.52z
		 M49.314,1.75c0.052,0.327,0.032,0.718,0.013,1.04c0.83,0.012,1.614,0.268,2.261,0.751c-0.06-0.032-0.138-0.163-0.125-0.249h0.027
		c0.013-0.117-0.164-0.169-0.105-0.287c0.158,0.013,0.274,0.229,0.359,0.347c0.452-0.006,0.19,0.528,0.53,0.691
		c0.079,0.041-0.026,0.204,0.099,0.191c0.104,0.085,0.234,0.175,0.215,0.314c0.039,0.234,0.228-0.073,0.333,0.078
		c0.093,0.072-0.064,0.117-0.045,0.203c0.058,0.026,0.111-0.059,0.157,0.013c0.02,0.079-0.04,0.111-0.08,0.157
		c-0.038,0.137,0.125,0.059,0.171,0.125c0.073,0.157,0.13,0.392,0.013,0.568c0.163,0.177-0.026,0.36-0.06,0.53
		c-0.117,0.111-0.137,0.373-0.358,0.313c-0.052,0.091,0.032,0.196-0.021,0.268l0.393,0.02c-0.222-0.315,0.065-0.614,0.157-0.895
		c0.045-0.021,0.104-0.117,0.144-0.021c-0.02,0.131-0.032,0.274-0.046,0.38c0.098,0.149,0.059,0.359,0.092,0.535l1.006-0.02
		c-0.071-0.666-0.21-1.306-0.49-1.881c-0.072,0.025-0.157,0.078-0.235,0.032C53.607,4.8,53.516,4.618,53.36,4.495
		c-0.132,0-0.223-0.105-0.327-0.17c-0.229,0.007-0.144-0.327-0.366-0.282c-0.119-0.058-0.203-0.116-0.235-0.253
		c-0.008-0.157-0.021-0.353-0.171-0.471c-0.083-0.045-0.162,0.012-0.221,0.065c-0.125,0.079-0.176-0.059-0.169-0.158
		c-0.138-0.104,0.006-0.222-0.066-0.345c-0.196-0.157-0.104-0.451-0.373-0.583C51,2.09,50.543,1.958,50.065,1.861
		C49.819,1.821,49.55,1.815,49.314,1.75z M52.308,1.75c-0.053,0.013-0.034,0.098-0.015,0.13c0.171,0.013,0.171,0.3,0.374,0.183
		l-0.046-0.201C52.569,1.729,52.393,1.796,52.308,1.75z M45.583,3.182c0.262,0.182,0.517,0.468,0.731,0.705
		c0.694-0.674,1.622-1.085,2.622-1.098c-0.02-0.328-0.02-0.681,0-1.008C47.667,1.88,46.53,2.338,45.583,3.182z M53.954,2.396
		l-0.687,0.738l-0.11,0.014c0.091,0,0.065,0.104,0.123,0.142c0.288,0.203,0.418,0.491,0.661,0.707
		c0.091,0.222,0.326,0.366,0.326,0.64c0.34,0.66,0.497,1.437,0.536,2.195c0.34-0.04,0.725-0.052,1.053-0.045l-0.033-0.032
		C55.757,5.056,55.065,3.605,53.954,2.396z M44.387,2.508l-0.032-0.099c-1.119,1.216-1.746,2.75-1.831,4.424l1.066,0.014
		c-0.039-0.341,0.053-0.668,0.092-1c0.227-0.987,0.653-1.921,1.411-2.653L44.387,2.508z M57.64,2.755
		c0.482,0.707,0.209,1.699,0.177,2.523c0.019,0.399,0.085,0.796,0.058,1.196c-0.058-0.156-0.072-0.327-0.111-0.49
		c-0.195-0.896-1.248-1.333-1.673-2.086c0.065,0.256,0.111,0.51,0.204,0.752c0.366,1.059,1.463,1.772,1.614,2.92
		c0.098-1.097,0.868-1.973,0.581-3.169C58.34,3.802,58.09,3.213,57.64,2.755z M40.591,2.899c-0.378,0.452-0.634,0.993-0.766,1.568
		c-0.254,1.203,0.471,2.131,0.628,3.229c0.209-1.378,1.661-2.248,1.738-3.687c-0.424,0.779-1.457,1.229-1.646,2.15
		c0,0.149-0.045,0.294-0.078,0.438l-0.033-0.033l0.052-0.594C40.663,4.906,40.042,3.808,40.591,2.899z M48.955,3.135l-0.033,0.026
		c-0.902,0.052-1.652,0.452-2.353,0.994c0.269,0.177,0.483,0.45,0.739,0.686c0.438-0.418,1.02-0.667,1.627-0.686
		C48.916,3.854,48.903,3.454,48.955,3.135z M49.328,3.149c0.053,0.305,0.039,0.666,0.019,0.987c0.608,0.045,1.255,0.292,1.693,0.692
		c0.228-0.236,0.483-0.55,0.738-0.692C51.06,3.566,50.254,3.213,49.328,3.149z M45.315,3.397v0.065
		c-0.831,0.946-1.293,2.09-1.378,3.371c0.34,0.008,0.711-0.013,1.032,0.014l-0.032-0.046c0.065-1.012,0.424-1.935,1.117-2.665
		C45.779,3.913,45.525,3.657,45.315,3.397z M51.994,4.37c-0.302,0.353-0.694,0.725-0.988,1.065c0.021,0.045,0.072,0.098,0.08,0.078
		c0.077-0.098,0.019-0.346,0.234-0.294c0.216,0.072,0.405,0.052,0.641,0.079c0.13,0.072,0.15,0.229,0.268,0.295
		c0.053,0.058-0.02,0.11-0.045,0.156c0.025,0.026,0.051,0.052,0.064,0.078c0.066-0.059,0.157-0.137,0.281-0.104
		c0.125,0.008,0.157,0.183,0.269,0.203c0.052,0.065-0.033,0.131-0.079,0.156c0.026,0.125-0.117,0.164-0.065,0.282
		c0.065,0.012,0.13-0.021,0.156-0.066c0.249-0.183,0.053-0.417,0.014-0.64c-0.099-0.203-0.308-0.242-0.471-0.392
		c0.007-0.065,0.045-0.137,0.098-0.17C52.445,4.808,52.151,4.612,51.994,4.37z M46.314,4.402c-0.221,0.275-0.438,0.575-0.593,0.896
		c-0.255,0.47-0.327,1.012-0.424,1.549l0.424-0.014c-0.072-0.084-0.059-0.202-0.059-0.313c0.098-0.21,0.138-0.583,0.45-0.562
		c0.15-0.033-0.007-0.15,0.111-0.209c0.223-0.033,0.282-0.242,0.47-0.34c0.177-0.021,0.215-0.268,0.393-0.288
		C46.785,4.913,46.582,4.651,46.314,4.402z M49.347,4.527l0.026,0.706l0.268,0.097c0.078-0.138,0.222-0.17,0.314-0.287
		c0.084-0.039,0.084,0.066,0.124,0.099c0.052,0.32-0.301,0.463-0.496,0.594h0.078c0.203-0.209,0.32,0.261,0.529,0.046
		c0.039-0.269,0.419-0.236,0.503-0.503c-0.065,0.065-0.098-0.007-0.156-0.026c0.018-0.092,0.143-0.149,0.202-0.209
		C50.315,4.781,49.851,4.605,49.347,4.527z M48.922,4.547c-0.548,0.078-1.064,0.281-1.457,0.705
		c0.129,0.026,0.261,0.078,0.359,0.169c0.034,0.065-0.059,0.073-0.065,0.111c0.085,0.125,0.091-0.025,0.177-0.046
		c0.079,0.08,0.149,0.138,0.261,0.08c0.059,0.097,0.15,0.005,0.222,0.013c0.026-0.079,0.138-0.145,0.092-0.236
		c0.038-0.072,0.059-0.189,0.157-0.189c-0.06,0.307,0.229,0,0.313,0.143C48.896,5.076,48.962,4.769,48.922,4.547z M58.738,5.298
		c0.182,1.059-0.458,1.856-0.72,2.776c-0.143,0.354-0.084,0.805-0.298,1.113c-0.014-0.177,0.083-0.347,0.097-0.538
		c0.163-1.182-0.863-1.881-1.098-2.881c-0.013,0.268,0.006,0.522,0.046,0.765c0.059,1.248,0.875,2.26,0.64,3.561
		c0.235-0.308,0.412-0.621,0.692-0.92C59.038,8.192,59.28,6.552,58.738,5.298z M39.591,5.435c-0.34,0.785-0.321,1.824-0.065,2.639
		c0.222,0.846,1.026,1.432,1.443,2.164c-0.072-0.306-0.058-0.69-0.013-1.005c0.274-1.091,0.706-2.144,0.64-3.352
		c-0.164,0.869-0.941,1.482-1.032,2.378c-0.058,0.367,0.032,0.726,0.078,1.051c-0.083-0.163-0.164-0.351-0.175-0.562
		C40.336,7.571,39.389,6.709,39.591,5.435z M48.903,5.847l0.019,0.014c0.02,0.098,0.091,0.248,0,0.313
		c-0.117,0.157-0.398,0.124-0.438,0.332c-0.305,0.093-0.189,0.472-0.287,0.708c-0.196,0.046-0.125-0.19-0.216-0.27l-0.045,0.06
		c-0.3-0.229-0.243,0.262-0.424,0.301c0.209,0.044,0.385-0.073,0.594-0.08c0.012,0.026,0.065,0.04,0.046,0.08h0.033
		C48.23,7.259,48.236,7.2,48.23,7.134c0.02-0.065,0.099-0.105,0.156-0.065c-0.018,0.065,0.027,0.118,0.079,0.145L48.354,7.37
		c-0.059,0.064,0.014,0.242-0.137,0.235c-0.032,0.007-0.06-0.021-0.046-0.052h-0.033l0.079,0.144c0.092-0.007,0.071-0.17,0.189-0.19
		c0.105-0.025,0.118-0.149,0.105-0.248c0.136-0.119,0.307-0.046,0.457-0.066c0.039,0.039,0.13,0.053,0.111,0.125
		c0.059,0.116-0.041,0.248-0.111,0.345c0.033,0.066-0.046,0.118-0.046,0.189c-0.123,0.131-0.261,0.072-0.424,0.111
		c0.209,0.143,0.431,0.236,0.705,0.215c0.262,0.021,0.138-0.313,0.327-0.417c0.111-0.014,0.21,0.014,0.333-0.02
		c0.052-0.097,0.059-0.215,0.078-0.326C49.83,7.362,49.87,7.251,49.863,7.16c-0.066-0.08-0.059-0.222-0.189-0.235
		c-0.026-0.072,0.051-0.104,0.045-0.169c0.196-0.072-0.104-0.19,0.021-0.301c-0.223-0.039-0.275-0.392-0.549-0.28
		c-0.065-0.092-0.235-0.132-0.235-0.269c0.02-0.097,0.242-0.058,0.215-0.044c-0.014-0.021-0.039-0.034-0.032-0.06
		C49.054,5.794,48.955,5.801,48.903,5.847z M46.112,6.69c-0.242,0.078,0,0.307-0.013,0.457c-0.026,0.125-0.151,0.027-0.224,0.079
		c0.033,0.204-0.136,0.242-0.281,0.281c-0.046,0.138,0.106,0.203,0.034,0.334c0.175,0.176,0.313,0.392,0.28,0.64
		c0.125,0.177,0.092,0.445,0.125,0.673c0.104,0.104,0.163,0.262,0.156,0.425c0.006,0.084-0.085,0.11-0.137,0.144
		C45.988,9.801,46.1,9.762,46.1,9.826l0.875-0.906c-0.306-0.354-0.547-0.825-0.639-1.314l-0.112-0.066
		C46.204,7.663,46.211,7.84,46.1,7.886c-0.059-0.052-0.177-0.079-0.177-0.189c0.032-0.071,0.091-0.027,0.145-0.033
		c-0.008-0.058,0.006-0.118,0.013-0.17c0.02-0.071-0.105-0.123-0.013-0.188c0.078-0.007,0.111,0.084,0.169,0.125l0.157-0.08
		C46.348,7.2,46.432,6.963,46.38,6.801C46.361,6.67,46.217,6.697,46.112,6.69z M52.543,6.82h0.078H52.543z M52.432,7.146
		l0.176,0.203c-0.005,0.229,0.308,0.3,0.326,0.537c0.067-0.216,0.06-0.457,0.125-0.673C52.857,7.192,52.602,7.259,52.432,7.146z
		 M54.771,7.16l0.032,0.065c-0.059,1.379-0.627,2.64-1.509,3.575c0.248,0.222,0.529,0.51,0.759,0.751
		c0.868-1,1.463-2.124,1.672-3.398c0.072-0.327,0.052-0.68,0.143-0.993c-0.319,0.091-0.699,0.032-1.051,0.053L54.771,7.16z
		 M53.425,7.179c0.038,0.131-0.04,0.255-0.033,0.393c-0.138,0.229,0.175,0.288,0.09,0.502c-0.058,0.047-0.117,0.041-0.189,0.014
		c-0.163,0.641-0.484,1.228-0.941,1.738h-0.045c0.116,0.073,0.202,0.235,0.333,0.268v-0.091c0.026-0.02,0.039-0.065,0.079-0.046
		c0.254,0.079,0.274,0.431,0.294,0.595c0.666-0.699,1.078-1.529,1.286-2.431c0.073-0.302,0.033-0.667,0.157-0.928
		C54.117,7.213,53.745,7.231,53.425,7.179z M45.284,7.192c0.071,0.237,0.149,0.491,0.09,0.752c0-0.118,0.255-0.236,0.052-0.34
		c0.078-0.119,0.02-0.367,0.169-0.38C45.479,7.251,45.387,7.251,45.284,7.192z M42.538,7.225c0.072,1.667,0.687,3.124,1.771,4.359
		c0.242-0.254,0.51-0.542,0.771-0.751c-0.132-0.085-0.215-0.236-0.346-0.346c-0.163-0.034-0.275-0.19-0.314-0.328
		c0.007,0.02-0.019,0.033-0.033,0.044c-0.15,0.073-0.196-0.11-0.294-0.167c-0.09-0.047-0.02-0.255-0.176-0.177
		c-0.091-0.15-0.26-0.138-0.326-0.313l-0.065,0.11c-0.118-0.006-0.202-0.151-0.268-0.223c-0.241,0.071-0.144-0.261-0.282-0.372
		c-0.052-0.209,0.014-0.405,0.124-0.569c0.072-0.065,0.209-0.013,0.236,0.032c0.125,0.046,0.045-0.097,0.112-0.124
		c0.176-0.15,0.26,0.06,0.358,0.17c-0.144-0.418-0.235-0.908-0.216-1.358C43.257,7.259,42.877,7.246,42.538,7.225z M43.916,7.213
		l0.034,0.046c0.032,0.47,0.164,0.928,0.202,1.378c0.06-0.039,0.021-0.144,0.098-0.144c0.027-0.221,0.059-0.477,0.203-0.674
		c0.209-0.006,0.217-0.287,0.438-0.266c0.052,0.038,0.124,0.091,0.143,0.156c-0.111-0.13-0.117-0.339-0.064-0.496
		C44.642,7.259,44.25,7.259,43.916,7.213z M46.759,7.631l0.059,0.098c0.079,0.326,0.275,0.601,0.438,0.896l0.3-0.315
		C47.55,8.272,47.57,8.226,47.544,8.2c-0.06-0.079-0.02-0.224-0.098-0.268c-0.026,0.072,0.058,0.111,0.019,0.169
		c-0.098-0.04-0.203-0.084-0.255-0.202c0.02-0.151-0.091-0.04-0.171-0.111C47.034,7.625,46.832,7.729,46.759,7.631z M47.858,7.899
		c-0.021,0.091-0.092,0.162-0.145,0.236c0.092-0.04,0.145-0.177,0.248-0.171L47.858,7.899z M56.874,8.022
		c-0.621,1.341-0.169,3.117-0.926,4.392l0.124-0.104c1.47-0.804,3.24-2.157,2.946-4.131c-0.025,0.269-0.111,0.512-0.234,0.741
		c-0.575,0.894-1.556,1.625-2.041,2.554c-0.012,0.033-0.057,0.052-0.077,0.02l0.098-0.124C57.456,10.369,56.836,9.139,56.874,8.022z
		 M50.647,8.135c-0.143,0.202,0.138,0.189,0.158,0.358c0.033,0,0.071,0.014,0.091-0.013c-0.021-0.072-0.013-0.15-0.078-0.203
		C50.707,8.277,50.707,8.135,50.647,8.135z M41.486,8.153c0.078,0.431-0.059,0.81-0.125,1.202c-0.224,0.751-0.111,1.634,0.328,2.247
		c-0.145-0.07-0.236-0.241-0.328-0.391c-0.542-1.039-1.908-1.627-2.026-2.875C39.33,8.788,39.33,9.265,39.466,9.67
		c0.38,1.399,1.922,2.117,2.96,2.823C41.689,11.219,42.081,9.487,41.486,8.153z M52.386,8.212c-0.189-0.143-0.15,0.13-0.314,0.112
		C52.013,8.31,52,8.238,51.994,8.178c-0.013,0.151-0.13,0.262-0.216,0.38c-0.301-0.085-0.222,0.34-0.522,0.249
		c0.039,0.119,0.17-0.019,0.235,0.021c0.052-0.027,0.038-0.08,0.065-0.111c0.033-0.124,0.184-0.17,0.301-0.124
		c0.065,0.104,0.084,0.235,0.078,0.358c-0.071,0.052-0.071,0.138-0.064,0.223c-0.092,0.149-0.053,0.47-0.327,0.438
		c-0.288-0.105-0.602-0.184-0.915-0.19v0.066c0.209,0.078,0.444,0.078,0.615,0.235c0.183-0.02,0.412,0.027,0.548-0.078
		c0.021-0.131,0.073-0.249,0.157-0.346c0.118,0.012,0.092,0.17,0.144,0.25c0.347-0.439,0.647-0.857,0.766-1.394
		C52.687,8.141,52.563,8.238,52.386,8.212z M48.185,8.2l-0.628,0.705c0.359,0.275,0.777,0.49,1.242,0.563
		c-0.007-0.125-0.007-0.248,0.058-0.347c0.065-0.039,0.164,0.019,0.223-0.045c-0.007-0.06-0.045-0.06-0.079-0.112
		c-0.039-0.091,0-0.175,0.012-0.234c0.026-0.046-0.051-0.15,0.034-0.184c-0.203,0.098-0.386-0.039-0.563-0.098
		C48.386,8.37,48.21,8.35,48.185,8.2z M50.209,8.905c0.078-0.105,0.249-0.085,0.282-0.202C50.346,8.676,50.19,8.78,50.209,8.905z
		 M50.582,9.062c-0.071,0.039-0.131,0.039-0.168,0.125c-0.085,0.111-0.19-0.006-0.268-0.047c0.025,0.034,0.083,0.112,0.012,0.158
		c-0.085,0.091-0.163-0.041-0.248-0.065c-0.046,0.286-0.15-0.079-0.301-0.013c-0.065-0.164-0.177,0.032-0.281,0.013
		c-0.079,0.065-0.085,0.255-0.235,0.235c-0.033,0.091-0.157,0.058-0.17,0.124c0.072,0.084,0.17,0.044,0.249,0.031
		c0.125-0.11,0.281-0.038,0.425-0.058c-0.013,0.236,0.261,0.058,0.346,0.203c0.098-0.006,0.098-0.105,0.138-0.177
		c0.202-0.033,0.412-0.157,0.523-0.314C50.628,9.219,50.667,9.094,50.582,9.062z M47.243,9.173
		c-0.208,0.254-0.458,0.497-0.705,0.705h0.044c0.577,0.498,1.301,0.844,1.98,0.955c-0.249-0.033-0.346-0.275-0.457-0.457
		c-0.064-0.152,0.164-0.184,0.125-0.34c0.084-0.138,0.215-0.216,0.378-0.235c-0.078,0.013-0.158,0.025-0.234,0.044
		C47.961,9.709,47.544,9.525,47.243,9.173z M56.248,10.003l-0.549,0.719c-0.737,1.02-0.653,2.412-1.679,3.281
		c0.529-0.171,1.111-0.242,1.659-0.359c1.235-0.314,2.537-1.53,2.712-2.797c-0.222,0.529-0.686,0.921-1.156,1.228
		c-0.81,0.379-1.634,0.81-2.32,1.411h-0.078l0.046-0.064C56.065,12.636,55.745,11.12,56.248,10.003z M52.059,10.081v0.013
		c-0.49,0.347,0.235,0.36,0.25,0.66c-0.073,0.144-0.334,0.289-0.17,0.458c0.052,0.058-0.026,0.104-0.046,0.157l0.673-0.569
		c-0.085,0.059-0.19,0.02-0.235-0.06C52.537,10.447,52.184,10.317,52.059,10.081z M42.114,10.114l0.189,0.483
		c0.183,1.084,0.269,2.281,1.255,2.966l-0.014,0.014c-0.319-0.138-0.561-0.406-0.85-0.582c-0.927-0.601-2.208-0.869-2.731-2.02
		c0.143,0.842,0.72,1.595,1.411,2.118c0.831,0.731,1.987,0.673,3,0.967c-0.373-0.287-0.582-0.614-0.751-1.018
		C43.25,12.015,42.923,10.944,42.114,10.114z M46.505,10.329l0.077,0.099L46.505,10.329z M46.616,10.454
		c0,0.111,0.151,0.117,0.091,0.255c-0.222,0.138-0.49,0.039-0.706,0.203c-0.197,0.105-0.359-0.125-0.472-0.111
		c0.955,0.823,2.073,1.371,3.36,1.43l0.079,0.046c-0.052-0.313-0.033-0.679-0.013-1.007C48.079,11.323,47.289,10.957,46.616,10.454z
		 M53.033,11.035c-0.144,0.196-0.34,0.379-0.55,0.503c-0.68,0.236-0.744,0.993-1.412,1.243c-0.261,0.103-0.411-0.236-0.646-0.288
		c-0.354,0.058-0.719,0.156-1.079,0.097v1.098l0.046-0.032c1.686-0.073,3.209-0.74,4.391-1.849
		C53.516,11.551,53.229,11.289,53.033,11.035z M45.315,11.101l-0.726,0.751c1.243,1.111,2.725,1.711,4.392,1.816l-0.046-0.078
		c0.013-0.328-0.026-0.674,0.033-0.987l-0.013,0.02C47.563,12.584,46.295,12.068,45.315,11.101z M49.295,11.335l0.064,0.112
		l-0.013,0.83c0.243-0.091,0.575-0.085,0.799-0.125c-0.132-0.129-0.327-0.117-0.38-0.312c-0.092-0.131,0.039-0.269,0.031-0.38
		C49.641,11.387,49.406,11.48,49.295,11.335z M54.85,12.12c-0.751,0.491-1.399,1.327-2.085,1.863
		c-0.379,0.287-0.83,0.373-1.274,0.502c0.98,0.073,1.797,0.537,2.823,0.472c1.097-0.046,2.103-0.687,2.62-1.66
		c-0.758,0.901-1.973,0.849-3.091,0.953c-0.372,0.047-0.739,0.157-1.111,0.157c0.014-0.012,0.026-0.039,0.046-0.032
		C54,14.27,54.346,12.943,54.85,12.12z M43.512,12.198c0.504,0.588,0.523,1.365,1.222,1.848c0.268,0.236,0.627,0.282,0.928,0.406
		c-0.334,0.032-0.642-0.104-0.975-0.124c-1.125-0.137-2.411,0.007-3.234-0.908c0.373,0.653,1.032,1.223,1.725,1.444
		c1.307,0.496,2.491-0.234,3.738-0.347C45.465,14.453,44.681,12.872,43.512,12.198z M52.921,15.256
		c-1.117-0.509-2.411-1.078-3.718-0.595c-0.66-0.215-1.522-0.215-2.182,0c-1.151,0.523-2.719,1.313-3.934,0.438
		c0.229,0.275,0.476,0.406,0.738,0.596c0.785,0.508,1.916,0.457,2.726,0.046c0.745-0.314,1.313-1.25,2.26-0.955
		c-0.804,0.405-1.541,0.889-2.208,1.582l0.405,0.346c0.586-0.777,1.378-1.424,2.228-1.803c0.824,0.398,1.575,1.085,2.195,1.772
		l0.405-0.347c-0.652-0.633-1.411-1.144-2.195-1.549c0.203-0.053,0.451-0.039,0.66-0.02c0.849,0.373,1.502,1.117,2.463,1.229
		c1.02,0.163,1.928-0.249,2.555-0.993l-0.483,0.254C54.267,15.512,53.504,15.445,52.921,15.256z"/>
	<path fill="#009DDC" d="M116.194,5.191c2.198-0.095,4.282-0.396,6.172-0.854V0.028h-6.172V5.191z"/>
	<path fill="#009DDC" d="M128.617,4.916c-1.089,0.552-2.299,1.027-3.586,1.437v4.767c2.035-1.497,3.73-3.421,4.969-5.638V4.128
		C129.56,4.404,129.103,4.669,128.617,4.916z"/>
	<path fill="#009DDC" d="M122.368,12.74c0-0.006-0.002-0.012-0.002-0.017v-5.65c-1.927,0.421-4.003,0.683-6.172,0.774v6.631
		C118.393,14.273,120.477,13.673,122.368,12.74z"/>
	<path fill="#009DDC" d="M125.031,0.028v3.515c2.048-0.732,3.753-1.655,4.969-2.673V0.028H125.031z"/>
	<path fill="#66B7E6" d="M112.977,0.028h-6.446v4.246c1.962,0.491,4.145,0.811,6.446,0.911V0.028z"/>
	<path fill="#66B7E6" d="M103.865,3.453V0.028h-4.682V0.87c0.704,0.593,1.572,1.159,2.578,1.671
		C102.408,2.87,103.114,3.174,103.865,3.453z"/>
	<path fill="#66B7E6" d="M112.977,7.841c-2.27-0.1-4.44-0.377-6.446-0.832v5.601c1.965,1.012,4.143,1.657,6.446,1.868V7.841z"/>
	<path fill="#66B7E6" d="M103.865,10.92V6.277c-1.752-0.575-3.324-1.3-4.682-2.151v1.384C100.365,7.619,101.96,9.459,103.865,10.92z
		"/>
	<path fill="#66B7E6" d="M106.502,31.27v-3.007h6.475v-0.645v-2.358h-6.476v-3.007h6.476v-5.096
		c-5.505-0.431-10.393-3.056-13.793-7.005v26.335h13.793V31.27H106.502z"/>
	<path fill="#009DDC" d="M116.194,17.156v5.096h6.206v3.007h-6.206v2.359v0.645h6.206v3.007h-6.206v5.217H130V10.138
		C126.599,14.092,121.707,16.722,116.194,17.156z"/>
</g>
</svg>
