<svg xmlns="http://www.w3.org/2000/svg" xmlns:xlink="http://www.w3.org/1999/xlink" preserveAspectRatio="xMidYMid" width="288.031" height="41" viewBox="0 0 288.031 41">
  <defs>
    <style>
      .cls-1 {
        fill: #878787;
        filter: url(#color-overlay-1);
        fill-rule: evenodd;
      }
    </style>

    <filter id="color-overlay-1" filterUnits="userSpaceOnUse">
      <feFlood flood-color="#878787"/>
      <feComposite operator="in" in2="SourceGraphic"/>
      <feBlend mode="color" in2="SourceGraphic" result="solidFill"/>
    </filter>
  </defs>
  <path d="M288.041,26.288 C285.595,27.573 283.240,29.027 281.004,30.656 C280.447,29.951 279.729,29.322 278.859,29.071 C278.020,28.823 277.010,29.400 276.805,30.260 C276.741,31.169 277.648,31.709 278.385,31.975 C277.793,32.208 277.173,31.939 276.663,31.635 C275.509,30.938 274.950,29.511 274.992,28.192 C275.033,27.031 275.703,26.033 276.413,25.171 C277.104,24.349 277.826,23.555 278.558,22.771 C277.603,21.928 276.603,21.144 275.629,20.324 C275.635,18.593 275.628,16.866 275.633,15.134 C276.967,14.571 278.294,13.967 279.496,13.149 C280.539,12.442 281.588,11.740 282.632,11.034 C283.254,11.667 283.974,12.338 284.897,12.421 C285.779,12.437 286.816,12.100 287.197,11.220 C287.352,10.902 287.312,10.543 287.188,10.223 C287.815,10.798 287.756,11.762 287.580,12.527 C287.108,14.338 285.971,15.868 284.841,17.316 C285.909,18.096 286.939,18.931 288.020,19.696 C288.071,21.891 288.022,24.092 288.041,26.288 ZM278.493,23.450 C277.501,24.471 276.446,25.489 275.793,26.776 C276.249,26.264 276.732,25.760 277.335,25.423 C278.651,24.591 280.429,24.641 281.723,25.496 C282.616,26.068 283.248,26.965 283.670,27.931 C283.715,26.045 283.676,24.152 283.691,22.266 C283.655,22.019 283.782,21.691 283.523,21.535 C282.958,21.050 282.400,20.560 281.835,20.080 C280.760,21.243 279.627,22.346 278.493,23.450 ZM286.430,14.446 C285.571,15.403 284.300,16.121 282.989,15.808 C281.673,15.594 280.713,14.568 279.987,13.515 C279.982,15.137 279.999,16.763 279.979,18.387 C280.484,18.937 281.032,19.446 281.542,19.994 C283.429,18.412 285.254,16.646 286.430,14.446 ZM287.188,10.223 C287.188,10.223 287.188,10.223 287.188,10.223 C287.188,10.223 287.188,10.223 287.188,10.223 L287.188,10.223 ZM266.086,30.525 C264.644,29.210 263.157,27.946 261.736,26.612 C261.226,26.917 260.799,27.337 260.327,27.690 C260.257,27.603 260.114,27.425 260.043,27.338 C260.591,26.979 261.132,26.606 261.680,26.241 C261.671,22.717 261.688,19.190 261.671,15.666 C263.259,14.778 264.976,14.122 266.473,13.070 C267.555,12.376 268.655,11.703 269.750,11.029 C270.936,13.210 272.105,15.403 273.269,17.599 C270.850,19.412 268.441,21.238 266.004,23.023 C265.986,23.385 265.989,23.750 266.008,24.112 C267.284,25.239 268.494,26.436 269.746,27.590 C270.971,26.590 272.190,25.587 273.411,24.582 C273.716,24.362 274.062,23.837 274.367,24.378 C271.766,26.394 269.161,28.406 266.563,30.429 C266.424,30.520 266.223,30.748 266.086,30.525 ZM269.703,19.767 C268.466,17.740 267.309,15.658 265.991,13.688 L265.991,13.688 C265.984,16.602 266.003,19.517 265.982,22.432 C267.229,21.555 268.449,20.635 269.703,19.767 ZM251.439,26.520 C251.715,26.264 251.984,25.997 252.249,25.730 C252.252,22.933 252.249,20.137 252.249,17.341 C251.370,16.350 250.495,15.355 249.589,14.391 C249.327,14.661 249.065,14.928 248.807,15.200 C248.804,18.697 248.821,22.194 248.798,25.691 C249.234,26.187 249.725,26.628 250.168,27.121 C248.977,28.189 247.830,29.307 246.647,30.385 C245.541,29.209 244.452,28.017 243.382,26.810 C243.687,26.430 244.299,26.154 244.202,25.576 C244.188,22.849 244.216,20.120 244.188,17.396 C243.451,16.357 242.624,15.352 241.770,14.405 C241.520,14.672 241.267,14.936 241.012,15.198 C241.019,18.587 240.993,21.975 241.024,25.362 C241.386,25.987 241.925,26.496 242.374,27.059 C241.219,28.286 240.025,29.479 238.821,30.658 C237.670,29.272 236.478,27.922 235.318,26.544 C235.680,26.261 236.045,25.980 236.409,25.697 C236.399,22.835 236.388,19.972 236.414,17.111 C235.735,16.261 234.991,15.467 234.278,14.647 C233.772,15.026 233.325,15.503 232.747,15.771 C232.719,15.505 232.979,15.377 233.143,15.216 C234.609,13.918 236.044,12.588 237.518,11.301 C238.576,12.480 239.670,13.626 240.709,14.822 C242.266,13.685 243.761,12.463 245.303,11.301 C246.383,12.471 247.443,13.661 248.533,14.822 C250.061,13.652 251.570,12.457 253.109,11.303 C254.159,12.487 255.243,13.642 256.306,14.815 C256.957,14.396 257.555,13.893 258.218,13.490 C258.268,13.880 257.917,14.058 257.672,14.274 C257.317,14.562 256.973,14.866 256.618,15.154 C256.588,18.396 256.625,21.639 256.599,24.882 C257.210,25.523 257.834,26.153 258.470,26.770 C258.805,26.416 259.150,26.069 259.477,25.708 C259.576,25.770 259.774,25.893 259.872,25.956 C258.265,27.557 256.607,29.108 254.957,30.663 C253.794,29.275 252.575,27.933 251.439,26.520 ZM232.635,27.306 C233.112,27.012 233.510,26.610 233.964,26.282 C234.061,26.334 234.256,26.437 234.352,26.488 C232.838,27.922 231.267,29.297 229.689,30.658 C228.640,29.383 227.563,28.130 226.490,26.874 C226.023,27.302 225.634,27.822 225.122,28.195 C225.050,28.126 224.905,27.988 224.833,27.917 C225.287,27.481 225.716,27.018 226.178,26.587 C226.214,23.636 226.180,20.682 226.195,17.733 C226.168,17.321 226.299,16.837 225.982,16.508 C225.420,15.803 224.903,15.061 224.305,14.388 C223.861,14.751 223.439,15.147 222.946,15.440 L222.946,15.440 C224.462,14.037 226.032,12.687 227.563,11.299 C228.653,12.553 229.713,13.836 230.798,15.094 C231.362,14.648 231.866,14.119 232.490,13.751 C232.443,13.952 232.390,14.159 232.206,14.272 C231.739,14.665 231.275,15.058 230.805,15.438 C230.812,18.686 230.791,21.934 230.815,25.181 C231.429,25.882 232.063,26.567 232.635,27.306 ZM224.304,6.979 C225.420,5.990 226.471,4.927 227.611,3.965 C228.576,4.995 229.592,5.973 230.573,6.986 C229.396,8.100 228.212,9.204 227.020,10.299 C226.119,9.187 225.193,8.100 224.304,6.979 ZM218.992,8.943 C219.028,10.646 218.994,12.352 219.009,14.054 C219.810,14.793 220.666,15.476 221.421,16.266 C220.603,16.856 219.839,17.518 219.026,18.113 C218.983,20.542 219.022,22.971 219.005,25.400 C220.441,24.330 221.621,22.928 222.532,21.382 C222.813,20.915 223.007,20.395 223.337,19.958 C223.301,21.697 223.015,23.437 222.304,25.030 C221.640,26.908 220.170,28.355 218.587,29.471 C216.187,30.945 213.246,31.344 210.503,30.882 C209.358,30.532 208.260,30.026 207.239,29.397 C205.104,28.071 203.464,25.992 202.532,23.650 C201.805,21.656 201.611,19.472 201.881,17.368 C202.593,13.223 205.818,9.849 209.599,8.303 C210.092,8.049 210.651,8.067 211.192,8.028 C210.651,8.154 210.252,8.535 209.857,8.899 C208.539,9.799 207.559,11.147 206.946,12.617 C209.630,11.490 212.283,10.285 214.956,9.135 C214.941,12.972 214.985,16.809 214.935,20.645 C213.348,21.402 211.794,22.223 210.219,23.006 C209.659,23.302 209.067,23.537 208.548,23.902 C209.814,25.275 211.482,26.435 213.389,26.551 C215.115,26.792 216.987,26.527 218.410,25.448 C218.393,23.010 218.409,20.570 218.397,18.134 C217.578,17.515 216.782,16.868 215.973,16.235 C216.776,15.497 217.589,14.772 218.402,14.046 C218.395,12.333 218.415,10.620 218.389,8.908 C216.876,8.626 215.434,8.060 213.931,7.737 C211.714,7.206 209.525,6.569 207.282,6.148 C206.670,5.968 205.949,5.964 205.421,6.365 C204.894,6.797 204.621,7.472 204.521,8.137 C204.342,8.808 204.965,9.283 205.327,9.754 C204.217,9.626 203.432,8.654 203.044,7.667 C202.574,6.188 202.695,4.455 203.660,3.196 C204.408,2.054 205.693,1.440 206.959,1.080 C208.127,0.769 209.339,1.006 210.495,1.254 C212.744,1.787 214.892,2.670 217.097,3.352 C218.017,3.604 219.041,3.800 219.944,3.379 C220.447,3.161 220.867,2.627 220.770,2.047 C220.591,1.510 220.249,0.991 219.732,0.741 C219.152,0.446 218.497,0.385 217.876,0.240 C218.149,0.042 218.438,-0.018 218.733,-0.008 C219.226,0.006 219.735,0.208 220.223,0.248 C221.312,0.414 222.366,0.991 223.036,1.885 C223.887,3.333 223.892,5.289 223.010,6.726 C222.162,8.126 220.568,8.840 218.992,8.943 ZM210.090,22.724 C210.081,19.038 210.102,15.353 210.081,11.669 C209.023,12.207 207.971,12.746 206.903,13.263 C205.981,15.110 205.876,17.281 206.274,19.284 C206.634,20.813 207.334,22.250 208.234,23.528 C208.854,23.264 209.468,22.986 210.090,22.724 ZM184.548,19.253 C186.322,16.500 188.134,13.770 189.954,11.045 C190.736,11.719 191.718,12.143 192.743,12.247 C193.749,12.248 194.606,11.645 195.364,11.039 C195.173,12.526 194.684,14.068 193.556,15.101 C192.572,16.013 191.080,16.233 189.842,15.788 C189.111,15.537 188.436,15.144 187.831,14.661 C187.724,14.915 187.636,15.178 187.573,15.446 C190.091,19.281 192.565,23.151 195.039,27.017 C195.607,26.644 196.105,26.174 196.606,25.715 C196.705,25.779 196.899,25.904 196.998,25.967 C195.218,27.571 193.382,29.110 191.557,30.663 C189.213,26.865 186.920,23.034 184.548,19.253 ZM186.999,25.944 C187.082,26.027 187.247,26.195 187.332,26.277 C185.676,27.727 184.072,29.234 182.406,30.669 C181.357,29.580 180.272,28.530 179.231,27.437 C178.765,27.856 178.337,28.316 177.898,28.763 C177.809,28.695 177.629,28.553 177.540,28.482 C178.334,27.715 179.185,27.012 179.988,26.251 C179.981,20.161 179.993,14.070 179.981,7.981 C179.962,6.843 179.388,5.479 178.127,5.338 C180.194,3.975 182.258,2.602 184.332,1.251 C184.350,9.286 184.317,17.323 184.350,25.359 C184.797,25.974 185.409,26.481 185.952,27.024 C186.293,26.654 186.648,26.301 186.999,25.944 ZM177.529,15.063 C176.530,16.272 174.640,16.624 173.304,15.796 C172.790,15.544 172.449,15.059 171.970,14.761 C171.982,18.405 171.977,22.047 171.974,25.689 C172.684,26.243 173.395,26.792 174.125,27.319 C174.656,26.966 175.064,26.319 175.734,26.258 C174.160,27.772 172.510,29.214 170.868,30.658 C169.634,29.482 168.373,28.336 167.154,27.148 C166.678,27.579 166.239,28.050 165.786,28.505 C165.714,28.419 165.569,28.250 165.497,28.164 C166.094,27.492 166.761,26.886 167.373,26.225 C167.350,23.109 167.385,19.992 167.357,16.875 C167.030,16.088 166.461,15.405 166.050,14.653 C165.486,14.989 165.076,15.690 164.375,15.714 C165.968,14.225 167.634,12.816 169.219,11.319 C170.205,12.225 171.033,13.295 171.948,14.277 C172.944,13.311 173.917,12.318 174.878,11.318 C175.578,11.769 176.306,12.405 177.204,12.222 C177.836,12.179 178.165,11.551 178.703,11.295 C178.704,12.628 178.401,14.028 177.529,15.063 ZM162.828,26.054 C160.251,27.295 157.888,28.924 155.386,30.308 C155.136,30.397 154.846,30.772 154.589,30.520 C153.034,29.212 151.491,27.889 149.925,26.593 C149.584,26.942 149.240,27.291 148.909,27.647 C148.814,27.654 148.625,27.667 148.530,27.673 C148.983,27.192 149.454,26.724 149.921,26.253 C149.918,22.555 149.941,18.855 149.908,15.156 C151.303,14.523 152.736,13.949 154.047,13.140 C155.163,12.409 156.298,11.711 157.449,11.034 C159.158,12.471 160.856,13.928 162.561,15.374 C162.997,15.019 163.436,14.668 163.870,14.306 C163.963,14.304 164.145,14.296 164.236,14.294 C163.782,14.775 163.311,15.243 162.846,15.714 C162.840,19.162 162.868,22.607 162.828,26.054 ZM154.534,13.589 L154.534,24.647 C155.779,25.783 156.976,26.969 158.237,28.087 C158.237,24.418 158.234,20.750 158.246,17.080 C157.016,15.909 155.764,14.756 154.534,13.589 ZM146.178,27.321 C146.151,28.465 145.701,29.681 144.701,30.303 C143.731,31.028 142.476,31.258 141.295,31.123 C139.214,30.905 137.263,30.048 135.184,29.829 C133.390,29.448 131.412,29.144 129.693,29.964 C128.898,30.383 128.114,31.237 128.344,32.215 C128.549,33.228 129.505,33.961 130.528,33.891 C133.544,33.808 136.456,32.850 139.443,32.502 C141.033,32.328 142.778,32.137 144.223,32.993 C145.321,33.563 146.377,34.548 146.454,35.872 C146.520,37.210 146.046,38.633 145.016,39.516 C144.103,40.319 142.938,40.762 141.768,41.013 C142.383,40.554 143.035,40.023 143.233,39.238 C143.493,38.367 142.912,37.259 141.919,37.335 C138.588,37.446 135.429,38.780 132.104,38.981 C130.933,39.021 129.715,39.005 128.633,38.493 C127.202,37.747 126.135,36.255 125.989,34.622 C125.949,33.691 125.961,32.697 126.437,31.866 C127.090,30.701 128.280,29.952 129.503,29.519 C129.511,25.893 129.527,22.270 129.494,18.644 C128.676,18.416 127.575,18.531 127.091,19.314 C126.731,20.094 127.351,20.796 127.961,21.194 C126.872,21.014 125.701,20.426 125.351,19.288 C124.819,18.136 125.059,16.749 125.834,15.770 C126.604,14.520 128.178,14.302 129.512,14.281 C129.510,12.236 129.515,10.194 129.512,8.151 C129.496,7.469 129.457,6.743 129.068,6.161 C128.613,5.440 127.601,5.177 126.842,5.504 C126.149,5.928 125.903,6.784 125.795,7.544 C125.542,6.318 126.020,4.996 126.910,4.140 C127.879,3.192 129.150,2.455 130.537,2.495 C131.706,2.577 132.918,3.007 133.693,3.936 C134.315,4.666 134.622,5.628 134.641,6.584 C134.644,14.144 134.631,21.700 134.645,29.259 C135.512,29.457 136.388,29.634 137.264,29.802 C137.271,20.840 137.259,11.879 137.268,2.918 C137.234,2.679 137.343,2.566 137.591,2.578 C137.634,3.846 137.595,5.111 137.613,6.379 C139.216,5.034 140.799,3.667 142.419,2.343 C143.675,3.429 144.918,4.523 146.187,5.591 C146.830,5.135 147.322,4.389 148.108,4.192 C147.546,4.847 146.836,5.355 146.191,5.921 C146.165,13.054 146.191,20.188 146.178,27.321 ZM137.625,30.089 C138.387,30.132 139.238,30.113 139.865,29.610 C140.514,29.109 141.109,28.364 141.053,27.491 C141.055,24.646 141.048,21.801 141.053,18.957 C140.700,18.414 140.177,17.899 139.494,17.881 C138.724,17.871 138.101,18.397 137.608,18.939 C137.624,22.654 137.582,26.375 137.625,30.089 ZM137.608,18.295 C138.154,17.879 138.800,17.544 139.503,17.559 C140.101,17.558 140.637,17.884 141.053,18.295 C141.050,17.277 141.050,16.253 141.053,15.235 C140.027,15.938 138.666,15.773 137.608,15.230 C137.606,16.252 137.612,17.275 137.608,18.295 ZM141.054,7.846 C140.332,7.213 139.619,6.575 138.896,5.947 C138.469,6.218 138.039,6.478 137.608,6.739 C137.610,9.362 137.612,11.985 137.608,14.608 C138.223,15.118 139.018,15.526 139.835,15.352 C140.336,15.288 140.711,14.926 141.054,14.586 C141.048,12.339 141.055,10.092 141.054,7.846 ZM117.189,25.431 C114.462,27.241 111.615,28.894 108.848,30.657 C107.389,29.600 105.971,28.485 104.531,27.404 C103.239,28.453 101.945,29.506 100.645,30.545 C100.459,30.755 100.267,30.449 100.114,30.362 C98.898,29.375 97.688,28.379 96.457,27.414 C95.940,27.870 95.397,28.297 94.879,28.753 C94.796,28.673 94.634,28.515 94.551,28.437 C95.184,27.994 95.802,27.529 96.434,27.087 C96.438,24.026 96.438,20.969 96.434,17.909 C96.433,17.091 96.148,16.261 95.595,15.656 C94.987,14.988 94.169,14.520 93.685,13.737 C93.149,12.829 93.101,11.702 93.306,10.686 C93.606,9.539 94.507,8.664 95.464,8.037 C96.162,7.553 97.044,7.582 97.850,7.478 C97.242,7.965 96.567,8.529 96.484,9.366 C96.348,10.114 96.817,10.789 97.363,11.238 C98.357,12.043 99.633,12.492 100.443,13.523 C100.832,14.022 101.068,14.652 101.051,15.292 C101.046,18.670 101.055,22.047 101.046,25.424 C101.935,26.149 102.827,26.868 103.714,27.593 C103.973,27.424 104.231,27.256 104.491,27.087 C104.479,23.399 104.510,19.711 104.476,16.026 C104.019,15.481 103.387,15.091 102.865,14.605 C104.147,13.412 105.403,12.187 106.710,11.024 C107.847,12.153 109.043,13.220 110.209,14.317 C109.766,14.793 109.310,15.251 108.843,15.700 C108.834,18.942 108.843,22.182 108.838,25.424 C110.002,26.335 111.167,27.250 112.343,28.149 C112.509,28.052 112.676,27.955 112.846,27.859 C112.829,23.901 112.848,19.944 112.836,15.986 C112.297,15.521 111.739,15.077 111.206,14.604 C112.464,13.402 113.737,12.220 115.001,11.028 C116.261,12.024 117.522,13.020 118.774,14.025 C119.208,13.541 119.653,13.060 120.149,12.637 C120.213,12.729 120.344,12.916 120.407,13.009 C119.336,13.973 118.271,14.950 117.232,15.951 C117.143,19.107 117.231,22.273 117.189,25.431 ZM86.204,24.260 C87.301,25.370 88.396,26.480 89.498,27.586 C90.904,26.441 92.288,25.265 93.714,24.147 C93.930,23.933 94.207,24.486 93.869,24.556 C91.237,26.589 88.629,28.655 85.971,30.651 C84.550,29.299 83.118,27.957 81.707,26.593 C81.147,26.944 80.608,27.324 80.062,27.695 C80.010,27.603 79.903,27.417 79.851,27.325 C80.344,26.926 80.904,26.623 81.410,26.241 C81.396,22.716 81.411,19.190 81.406,15.666 C83.049,14.811 84.750,14.063 86.320,13.070 C87.393,12.413 88.449,11.722 89.498,11.024 C90.647,13.237 91.911,15.401 92.991,17.647 C90.646,19.395 88.379,21.251 86.040,23.006 C86.059,23.419 85.849,23.944 86.204,24.260 ZM86.010,13.697 C86.035,16.597 85.982,19.498 86.035,22.396 C87.174,21.531 88.284,20.627 89.433,19.775 C88.320,17.734 87.216,15.683 86.010,13.697 ZM77.692,8.132 C77.716,15.568 77.695,23.006 77.699,30.443 C77.774,30.782 77.466,31.048 77.149,30.913 C76.524,30.883 76.358,30.216 76.093,29.767 C72.245,22.613 68.437,15.434 64.558,8.295 C64.484,13.546 64.556,18.802 64.522,24.054 C66.355,24.404 68.139,25.298 69.338,26.771 C69.895,26.335 70.255,25.570 70.968,25.394 C70.787,25.726 70.524,26.000 70.272,26.278 C68.885,27.830 67.502,29.389 66.117,30.944 C65.474,30.126 64.618,29.349 63.547,29.237 C62.842,29.209 62.027,29.246 61.514,29.809 C60.923,30.341 60.527,31.240 60.949,32.001 C61.443,33.094 62.687,33.389 63.735,33.650 C62.425,33.912 60.959,33.759 59.903,32.872 C59.063,32.146 58.299,31.224 58.081,30.099 C57.786,28.549 58.244,26.827 59.390,25.727 C60.642,24.475 62.479,24.009 64.198,24.109 C64.244,21.820 64.224,19.532 64.208,17.243 C63.373,17.109 62.234,17.230 61.845,18.113 C61.619,18.828 62.150,19.431 62.675,19.823 C62.024,19.707 61.300,19.582 60.830,19.071 C60.275,18.380 59.845,17.563 59.684,16.682 C59.524,15.548 59.819,14.256 60.753,13.527 C61.729,12.762 63.030,12.658 64.222,12.685 C64.222,11.073 64.222,9.460 64.222,7.848 C63.790,7.191 63.374,6.440 62.632,6.099 C62.146,5.895 61.512,5.823 61.094,6.205 C60.515,6.701 60.375,7.490 60.146,8.181 C59.924,6.495 60.091,4.581 61.261,3.257 C62.673,1.407 65.662,1.339 67.207,3.050 C67.876,3.745 68.334,4.601 68.789,5.446 C71.649,10.593 74.451,15.775 77.340,20.906 C77.358,16.651 77.366,12.393 77.337,8.138 C76.841,7.943 76.288,7.948 75.783,7.771 C74.842,7.520 74.059,6.907 73.363,6.245 C72.929,6.759 72.491,7.273 72.086,7.811 C71.991,7.759 71.804,7.656 71.709,7.603 C73.190,5.715 74.779,3.912 76.320,2.075 C77.128,2.935 78.183,3.638 79.385,3.716 C80.641,3.571 81.876,2.556 81.964,1.219 C82.991,3.036 82.348,5.502 80.803,6.811 C79.854,7.436 78.762,7.781 77.692,8.132 ZM45.664,30.621 C44.126,29.319 42.671,27.915 41.130,26.619 C40.671,26.930 40.259,27.301 39.842,27.664 C39.749,27.606 39.564,27.494 39.471,27.439 C39.954,26.960 40.573,26.661 41.104,26.246 C41.090,22.718 41.100,19.192 41.095,15.666 C42.339,15.034 43.594,14.418 44.829,13.768 C46.286,12.850 47.725,11.900 49.213,11.029 C50.371,13.216 51.528,15.402 52.723,17.568 C50.329,19.416 47.897,21.215 45.466,23.015 C45.496,23.436 45.270,24.001 45.673,24.300 C46.857,25.384 48.005,26.506 49.192,27.586 C50.628,26.427 52.039,25.224 53.490,24.082 L53.813,24.369 C51.206,26.408 48.575,28.419 45.970,30.460 C45.893,30.501 45.740,30.581 45.664,30.621 ZM49.140,19.758 C47.924,17.706 46.688,15.671 45.458,13.627 L45.458,13.627 C45.435,16.559 45.442,19.492 45.454,22.422 C46.677,21.527 47.903,20.638 49.140,19.758 ZM37.391,22.442 C37.426,24.251 37.167,26.049 37.114,27.856 C37.033,29.818 36.280,31.822 34.768,33.109 C33.538,34.220 31.856,34.620 30.253,34.754 C30.225,34.792 30.166,34.871 30.137,34.911 L30.180,34.769 C29.627,34.769 29.076,34.747 28.525,34.706 C29.217,34.343 30.001,34.111 30.547,33.513 C31.174,32.806 31.905,32.132 32.213,31.208 C32.718,29.796 32.733,28.276 32.783,26.795 C32.769,23.479 32.799,20.159 32.768,16.842 C32.037,15.879 31.162,15.031 30.387,14.100 C29.963,14.558 29.455,14.942 29.091,15.451 C29.062,18.875 29.088,22.301 29.079,25.724 C29.519,26.166 29.956,26.614 30.399,27.052 C30.754,26.691 31.109,26.329 31.464,25.967 C31.543,26.045 31.700,26.201 31.779,26.280 C30.056,27.642 28.351,29.025 26.628,30.385 C25.538,29.406 24.473,28.399 23.400,27.402 C23.040,27.673 22.680,27.948 22.318,28.219 C22.240,28.137 22.089,27.972 22.011,27.891 C22.838,27.353 23.649,26.789 24.468,26.243 C24.466,20.154 24.466,14.066 24.468,7.978 C24.451,7.514 24.473,7.012 24.230,6.597 C24.070,6.280 23.708,6.179 23.438,5.988 C23.377,5.785 23.663,5.700 23.770,5.575 C25.550,4.235 27.295,2.844 29.076,1.509 C29.085,5.936 29.074,10.364 29.081,14.793 C30.588,13.536 32.108,12.294 33.600,11.019 C34.797,12.275 35.915,13.608 37.148,14.824 C37.669,14.446 38.203,14.087 38.749,13.749 C38.651,14.452 37.820,14.692 37.390,15.181 C37.395,17.602 37.390,20.021 37.391,22.442 ZM17.236,8.917 C17.232,10.618 17.240,12.326 17.236,14.028 C18.049,14.759 18.859,15.488 19.674,16.219 C18.879,16.884 18.056,17.515 17.236,18.146 C17.227,20.569 17.244,22.991 17.232,25.414 C19.118,24.032 20.500,22.076 21.538,19.994 C21.583,21.341 21.387,22.698 20.953,23.972 C20.484,25.266 20.008,26.604 19.062,27.630 C16.897,30.072 13.520,31.295 10.311,31.026 C8.760,31.007 7.305,30.344 5.953,29.637 C3.544,28.349 1.728,26.097 0.746,23.550 C-0.047,21.262 -0.282,18.702 0.449,16.362 C1.541,12.676 4.442,9.656 7.964,8.251 C8.422,8.035 8.937,8.071 9.428,8.042 C7.547,9.007 5.970,10.631 5.195,12.636 C7.877,11.477 10.540,10.275 13.231,9.135 C13.210,12.969 13.272,16.804 13.196,20.638 C11.043,21.679 8.897,22.750 6.792,23.885 C8.048,25.287 9.750,26.443 11.667,26.551 C13.473,26.764 15.460,26.576 16.943,25.419 C16.900,22.987 16.967,20.557 16.909,18.126 C16.003,17.504 15.098,16.882 14.221,16.219 C15.122,15.502 15.999,14.756 16.917,14.063 C16.943,12.344 16.943,10.627 16.917,8.908 C15.494,8.647 14.119,8.190 12.727,7.807 C10.241,7.296 7.812,6.538 5.319,6.070 C4.663,5.966 3.873,6.043 3.429,6.601 C2.643,7.466 2.787,8.912 3.545,9.744 C2.265,9.567 1.381,8.312 1.138,7.105 C0.921,5.580 1.319,3.891 2.417,2.778 C3.605,1.566 5.289,0.728 7.012,0.958 C10.228,1.336 13.189,2.788 16.319,3.535 C17.242,3.777 18.321,3.540 18.950,2.782 C19.282,2.469 19.386,1.921 19.053,1.564 C18.390,0.594 17.158,0.451 16.108,0.240 C16.363,0.075 16.628,0.005 16.900,-0.008 C17.500,-0.037 18.129,0.200 18.726,0.252 C19.805,0.449 20.723,1.157 21.431,1.972 C22.201,3.121 22.021,4.626 21.676,5.895 C21.182,7.841 19.071,8.820 17.236,8.917 ZM8.304,22.750 C8.338,19.057 8.310,15.365 8.317,11.673 C7.259,12.191 6.221,12.743 5.160,13.253 C4.599,14.784 4.299,16.437 4.385,18.069 C4.702,20.001 5.389,21.906 6.495,23.523 C7.095,23.256 7.694,22.991 8.304,22.750 Z" class="cls-1"/>
</svg>
