<svg xmlns="http://www.w3.org/2000/svg" xmlns:xlink="http://www.w3.org/1999/xlink" preserveAspectRatio="xMidYMid" width="77.062" height="34" viewBox="0 0 77.062 34">
  <defs>
    <style>
      .cls-1 {
        fill: #878787;
        fill-rule: evenodd;
      }
    </style>
  </defs>
  <path d="M70.536,34.015 C68.265,34.015 66.265,32.900 65.098,31.215 L56.485,18.217 L56.487,27.785 C56.487,31.222 53.571,34.015 49.975,34.015 C47.700,34.015 45.700,32.900 44.535,31.215 L35.922,18.217 L35.916,28.582 C35.916,31.577 33.374,33.986 30.243,33.986 L17.779,33.995 C7.964,33.995 0.008,26.387 0.008,16.999 C0.008,7.615 7.964,0.005 17.779,0.005 C17.779,0.005 24.406,-0.009 24.406,0.005 L24.406,4.241 L17.779,4.247 C10.414,4.247 4.444,9.958 4.444,16.999 C4.444,24.044 10.414,29.756 17.779,29.756 L30.243,29.763 C30.926,29.763 31.479,29.234 31.479,28.582 L31.484,6.215 C31.484,5.801 31.834,5.463 32.268,5.463 C32.535,5.463 32.774,5.596 32.918,5.790 L48.250,28.894 C48.624,29.424 49.258,29.771 49.975,29.771 C51.122,29.771 52.051,28.883 52.051,27.785 L52.047,6.215 C52.047,5.801 52.397,5.463 52.831,5.463 C53.100,5.463 53.337,5.596 53.479,5.790 L68.815,28.894 C69.190,29.424 69.819,29.771 70.536,29.771 C71.684,29.771 72.612,28.883 72.612,27.785 L72.612,-0.009 L77.048,-0.009 L77.048,27.785 C77.048,31.222 74.134,34.015 70.536,34.015 ZM70.536,28.535 C70.279,28.535 70.050,28.418 69.907,28.235 L54.552,5.106 C54.180,4.574 53.549,4.229 52.831,4.229 C51.684,4.229 50.754,5.120 50.754,6.215 L50.760,27.785 C50.760,28.198 50.407,28.535 49.975,28.535 C49.716,28.535 49.485,28.418 49.346,28.235 L33.991,5.106 C33.617,4.574 32.985,4.229 32.268,4.229 C31.121,4.229 30.193,5.120 30.193,6.215 L30.199,27.957 C30.199,28.288 29.916,28.560 29.569,28.560 L17.779,28.556 C11.127,28.556 5.735,23.361 5.735,16.999 C5.735,10.640 11.127,5.444 17.779,5.444 C17.779,5.444 24.406,5.420 24.406,5.444 C24.406,5.466 24.406,9.726 24.406,9.726 L17.779,9.722 C13.578,9.722 10.171,12.981 10.171,16.999 C10.171,21.019 13.578,24.314 17.779,24.314 L25.123,24.307 C25.472,24.307 25.753,24.035 25.753,23.700 L25.757,6.215 C25.757,2.775 28.673,-0.013 32.268,-0.013 C34.549,-0.013 36.555,1.109 37.718,2.805 L46.304,15.685 L46.318,6.215 C46.318,2.775 49.234,-0.013 52.831,-0.013 C55.112,-0.013 57.116,1.109 58.282,2.805 L66.869,15.685 L66.869,-0.009 L71.331,-0.009 L71.321,27.785 C71.321,28.198 70.970,28.535 70.536,28.535 Z" class="cls-1"/>
</svg>
