<svg xmlns="http://www.w3.org/2000/svg" xmlns:xlink="http://www.w3.org/1999/xlink" preserveAspectRatio="xMidYMid" width="92.969" height="45.97" viewBox="0 0 92.969 45.97">
  <defs>
    <style>
      .cls-1 {
        fill: #878787;
        fill-rule: evenodd;
      }
    </style>
  </defs>
  <path d="M89.517,17.238 L89.517,17.238 C88.967,17.029 88.244,16.839 87.517,16.839 C85.451,16.839 84.790,18.022 84.790,18.945 C84.790,20.148 85.580,20.503 86.562,20.764 L88.346,21.260 C90.542,21.877 92.970,22.676 92.970,26.104 C92.970,29.246 91.053,31.537 86.814,31.537 C85.171,31.537 83.467,31.348 81.466,30.618 L81.466,26.244 L84.578,26.244 L84.578,28.416 C85.364,28.772 86.221,28.845 87.092,28.845 C88.923,28.845 89.733,27.872 89.733,26.620 C89.733,25.771 89.305,25.158 87.304,24.592 L85.662,24.118 C82.594,23.245 81.553,21.920 81.553,19.371 C81.553,16.742 83.215,14.431 87.430,14.431 C89.246,14.431 91.053,14.757 92.330,15.303 L92.330,19.251 L89.517,19.251 L89.517,17.238 ZM73.927,31.309 L66.428,31.309 L66.428,28.683 L68.588,28.683 L68.588,17.274 L66.648,17.274 L66.648,14.663 L73.424,14.663 C77.621,14.663 78.956,17.142 78.956,18.949 C78.956,20.481 78.131,21.714 76.925,22.296 C78.619,22.994 79.573,24.716 79.573,26.221 C79.573,29.846 76.689,31.309 73.927,31.309 ZM73.527,17.274 L71.680,17.274 L71.680,21.325 L73.527,21.325 C74.918,21.325 75.857,20.511 75.857,19.293 C75.857,18.091 74.926,17.274 73.527,17.274 ZM73.649,23.951 L71.680,23.951 L71.680,28.683 L73.649,28.683 C75.271,28.683 76.371,27.803 76.371,26.313 C76.371,25.050 75.515,23.951 73.649,23.951 ZM59.643,24.713 C59.340,24.717 57.706,24.713 57.706,24.713 L57.706,28.683 L60.209,28.683 L60.209,31.310 L52.449,31.310 L52.449,28.683 L54.613,28.683 L54.613,17.274 L52.476,17.274 L52.476,14.663 L59.544,14.663 C63.375,14.663 65.571,16.614 65.571,19.682 C65.571,22.808 63.277,24.713 59.643,24.713 ZM59.769,17.270 L57.706,17.270 L57.706,22.091 L59.769,22.091 C61.521,22.091 62.480,21.017 62.480,19.682 C62.480,18.305 61.474,17.270 59.769,17.270 ZM23.285,45.980 C10.418,45.980 -0.013,35.684 -0.013,22.986 C-0.013,10.281 10.418,-0.011 23.285,-0.011 C36.152,-0.011 46.583,10.281 46.583,22.986 C46.583,35.684 36.152,45.980 23.285,45.980 ZM18.846,10.413 C13.173,10.413 8.501,14.322 8.501,20.124 C8.501,25.003 11.479,28.485 15.919,29.152 L15.919,35.940 L25.160,35.940 L25.160,29.416 L26.444,29.416 C27.945,29.276 28.959,28.299 28.975,26.923 L28.975,23.150 L31.493,23.150 L25.764,10.413 L18.846,10.413 ZM36.643,26.911 L36.643,23.150 L36.643,23.150 L39.162,23.150 L33.504,10.413 L29.799,10.413 L35.476,23.150 L32.891,23.150 L32.891,26.532 C32.899,28.579 32.026,29.455 29.206,29.417 L29.206,35.940 L32.879,35.940 L32.879,29.417 L34.093,29.417 C35.166,29.447 36.623,28.587 36.643,26.911 ZM23.949,21.462 C22.633,21.462 21.564,20.411 21.564,19.108 C21.564,17.808 22.633,16.758 23.949,16.758 C25.265,16.758 26.330,17.808 26.330,19.108 C26.330,20.411 25.265,21.462 23.949,21.462 Z" class="cls-1"/>
</svg>
