<?xml version="1.0" encoding="UTF-8" standalone="no"?>
<svg width="34px" height="31px" viewBox="0 0 34 31" version="1.1" xmlns="http://www.w3.org/2000/svg" xmlns:xlink="http://www.w3.org/1999/xlink">
    <!-- Generator: Sketch 39.1 (31720) - http://www.bohemiancoding.com/sketch -->
    <title>Icon_black_Medal_34x31</title>
    <desc>Created with Sketch.</desc>
    <defs></defs>
    <g id="A" stroke="none" stroke-width="1" fill="none" fill-rule="evenodd">
        <g id="Icon_black_Medal_34x31">
            <path d="M8.424,5.084 L5.034,1.695 L32.198,1.695 L32.198,5.084 L8.424,5.084 Z M32.198,0 L1.695,0 C0.758,0 0,0.758 0,1.695 L0,3.849 L0,5.084 L0,6.247 L8.85058594,15.0430002 L10.0485859,13.8440002 L1.695,5.544 L1.695,1.695 L2.638,1.695 L12.4445859,11.4480002 L13.6425859,10.2500002 L10.118,6.779 L23.774,6.779 L20.0063398,10.7287285 L21.2043398,11.9277285 L26.172,6.779 L30.965,6.779 L24.0856323,13.8439999 L25.0209351,15.2677612 L33.396,6.744 C33.782,6.357 33.891,6.087 33.891,5.334 C33.891,5.334 33.884,1.686 33.892,1.695 C33.892,0.758 33.134,0 32.198,0 Z" id="Fill-36-Copy" fill="#000000"></path>
            <path d="M26.764,19.882 C26.764,25.34 22.34,29.764 16.882,29.764 C11.425,29.764 7,25.34 7,19.882 C7,14.424 11.425,10 16.882,10 C22.34,10 26.764,14.424 26.764,19.882 L26.764,19.882 Z" id="Stroke-38-Copy" stroke="#000000" stroke-width="1.75" stroke-linecap="round" stroke-linejoin="round"></path>
            <path d="M16,14 C19.605,14 22.527,16.922 22.527,20.527" id="Stroke-40-Copy" stroke="#000000" stroke-width="1.75" stroke-linecap="round" stroke-linejoin="round"></path>
            <path d="M17.526,25.527 C13.922,25.527 11,22.605 11,19" id="Stroke-43-Copy" stroke="#000000" stroke-width="1.75" stroke-linecap="round" stroke-linejoin="round"></path>
        </g>
    </g>
</svg>