<?xml version="1.0" encoding="UTF-8" standalone="no"?>
<svg width="23px" height="23px" viewBox="0 0 23 23" version="1.1" xmlns="http://www.w3.org/2000/svg" xmlns:xlink="http://www.w3.org/1999/xlink">
    <!-- Generator: Sketch 39.1 (31720) - http://www.bohemiancoding.com/sketch -->
    <title>Icon_black_Pencil_23x23</title>
    <desc>Created with Sketch.</desc>
    <defs></defs>
    <g id="A" stroke="none" stroke-width="1" fill="none" fill-rule="evenodd">
        <g id="Icon_black_Pencil_23x23" fill="#000000">
            <path d="M0.600303073,22.9938872 L7.99841969,21.8691425 C8.10831296,21.8525307 8.21028368,21.801162 8.28899792,21.7224478 L19.2962137,10.715232 L22.8470439,7.16440177 C23.0509854,6.96046032 23.0509854,6.63001383 22.8470439,6.42632795 L16.573672,0.152956087 C16.3699862,-0.0509853622 16.0395397,-0.0509853622 15.8358538,0.152956087 L12.2850236,3.70378628 L1.27780781,14.7135577 C1.19909357,14.792272 1.14746929,14.8939871 1.13060195,15.0038804 L0.00585719503,22.401997 C-0.0179104174,22.5596811 0.0314137676,22.7194097 0.140029201,22.8359476 C0.257589435,22.9596414 0.429840734,23.0196994 0.600303073,22.9938872 Z M2.08985701,15.9454745 L7.05708114,20.9126986 L1.19917888,21.8036277 L2.08985701,15.9454745 Z M8.23864391,19.9245564 L3.07901288,14.7649253 L12.3663011,5.47739892 L17.5259321,10.6370299 L8.23864391,19.9245564 M18.6770216,9.37768235 L13.6256288,4.32628961 L16.3195961,1.6320891 L21.3709889,6.68348184 L18.6770216,9.37768235" id="Fill-1-Copy-6"></path>
        </g>
    </g>
</svg>