<?xml version="1.0" encoding="UTF-8" standalone="no"?>
<svg width="30px" height="26px" viewBox="0 0 30 26" version="1.1" xmlns="http://www.w3.org/2000/svg" xmlns:xlink="http://www.w3.org/1999/xlink">
    <!-- Generator: Sketch 39.1 (31720) - http://www.bohemiancoding.com/sketch -->
    <title>Icon_black_Person+_30x26</title>
    <desc>Created with Sketch.</desc>
    <defs></defs>
    <g id="A" stroke="none" stroke-width="1" fill="none" fill-rule="evenodd" stroke-linecap="round">
        <g id="Icon_black_Person+_30x26" stroke="#000000">
            <g id="Person-+" transform="translate(1.000000, 1.000000)">
                <path d="M19.889,17.976 C19.889,17.976 19.875,17.778 19.663,17.079 C19.504,16.559 19.291,16.06 19.029,15.59 C18.727,15.05 18.361,14.547 17.941,14.093 C17.597,13.722 17.217,13.383 16.807,13.081 C16.348,12.745 15.85,12.455 15.321,12.22 C14.684,11.936 14.004,11.731 13.29,11.618 L12.868,11.551 C12.812,11.55 12.75,11.473 12.682,11.471 C14.509,10.533 15.754,8.742 15.754,6.595 C15.754,3.506 13.174,1 9.993,1 C6.81,1 4.23,3.506 4.23,6.595 C4.23,8.758 5.493,10.558 7.341,11.49 C7.093,11.5 6.861,11.586 6.664,11.598 L6.039,11.75 C5.525,11.876 5.031,12.05 4.562,12.267 C4.043,12.506 3.554,12.799 3.103,13.137 C2.652,13.476 2.24,13.861 1.873,14.284 C1.614,14.583 1.377,14.902 1.165,15.237 C0.949,15.582 0.758,15.943 0.598,16.321 C0.42,16.741 0.277,17.18 0.176,17.634 L0.058,18.166 L0,21.197 C0.003,21.301 0.588,21.778 1.284,22.03 C1.284,22.03 1.685,22.175 2.566,22.419 C4.966,23.083 7.589,23.449 10.34,23.449 C12.909,23.449 15.369,23.13 17.637,22.546 C18.43,22.342 18.664,22.265 18.664,22.265 C19.367,22.031 19.953,21.717 19.966,21.564 L19.889,17.976 L19.889,17.976 Z" id="Stroke-35" stroke-width="1.5" stroke-linejoin="round"></path>
                <path d="M23,9.71445147e-17 L23,7" id="Line" stroke-width="1.75" stroke-linejoin="bevel"></path>
                <path d="M23,3.55271368e-15 L23,7" id="Line-Copy-4" stroke-width="1.75" stroke-linejoin="bevel" transform="translate(23.000000, 3.500000) rotate(-270.000000) translate(-23.000000, -3.500000) "></path>
            </g>
        </g>
    </g>
</svg>