<?xml version="1.0" encoding="utf-8"?>
<!-- Generator: Adobe Illustrator 16.0.0, SVG Export Plug-In . SVG Version: 6.00 Build 0)  -->
<!DOCTYPE svg PUBLIC "-//W3C//DTD SVG 1.1//EN" "http://www.w3.org/Graphics/SVG/1.1/DTD/svg11.dtd">
<svg version="1.1" id="Layer_1" xmlns="http://www.w3.org/2000/svg" xmlns:xlink="http://www.w3.org/1999/xlink" x="0px" y="0px"
	 width="400px" height="400px" viewBox="-185 -187 400 400" enable-background="new -185 -187 400 400" xml:space="preserve">
<title>Icon_black_Person+_30x26</title>
<desc>Created with Sketch.</desc>
<g>
	<g id="Stroke-35">
		<path d="M-27.282,191.309c-39.188,0-77.342-5.056-113.412-15.042c-13.063-3.611-19-5.777-19-5.777
			c-0.271-0.098-24.958-9.195-25.306-21.57l0.82-43.626c0.014-0.708,0.097-1.402,0.25-2.097l1.673-7.569
			c1.542-6.931,3.764-13.834,6.604-20.528c2.403-5.681,5.375-11.375,8.833-16.917c3.361-5.292,7.069-10.278,11.063-14.876
			c5.729-6.597,12.16-12.597,19.132-17.847c7.104-5.334,14.744-9.883,22.709-13.542c5.688-2.64,11.639-4.868,17.729-6.64
			c-18.084-16.625-28.66-39.688-28.66-64.348c0-49.758,41.556-90.238,92.633-90.238c51.056,0,92.599,40.48,92.599,90.238
			c0,25.028-10.348,47.82-28.528,64.383c5.458,1.59,10.819,3.556,16.042,5.875c8.125,3.611,15.889,8.118,23.098,13.389
			c6.361,4.688,12.306,9.979,17.652,15.729c6.542,7.084,12.236,14.932,16.959,23.334c4.125,7.417,7.444,15.236,9.903,23.278
			c2.944,9.681,3.556,13.653,3.652,15.153l1.125,51.528c-0.306,4.389-0.944,12.042-25.806,20.334
			c-0.083,0.014-3.556,1.166-15.334,4.194C45.191,186.878,9.378,191.309-27.282,191.309z M-163.59,144.419
			c2.34,1.736,6.368,4.278,11.153,6.014c0.222,0.084,5.715,2.028,17.438,5.278c66.209,18.306,142.155,18.931,208.83,1.75
			c10.306-2.653,13.709-3.708,14-3.806c4.986-1.667,8.75-3.375,11.07-4.611l-1.042-45.903c0,0.014,0,0.027,0,0.027
			c-0.056,0-0.583-2.902-2.75-10.027c-2.014-6.584-4.75-13.028-8.125-19.098c-3.89-6.917-8.598-13.403-13.986-19.236
			c-4.417-4.765-9.348-9.153-14.626-13.028c-5.958-4.361-12.402-8.098-19.152-11.098c-8.368-3.736-17.182-6.347-26.209-7.771
			l-6.014-0.959l0.007-0.048c-1.438-0.278-3.083-0.861-4.34-1.493c-3.472-1.16-6.194-4.056-7.035-7.771
			C-5.448,7.896-3.17,3.021,1.156,0.799C24.886-11.39,39.053-33.771,39.053-59.07c0-37.994-31.973-68.904-71.265-68.904
			c-39.313,0-71.3,30.91-71.3,68.904c0,25.507,14.348,47.979,38.383,60.104c4.34,2.188,6.653,7.035,5.618,11.785
			c-1.035,4.75-5.146,8.202-10.007,8.396c-1.292,0.048-2.535,0.368-3.708,0.618c-1.597,0.34-3.125,0.639-4.569,0.805l-8.132,1.979
			c-6.549,1.604-12.965,3.841-19.042,6.66c-6.632,3.056-12.958,6.833-18.84,11.236c-5.757,4.333-11.091,9.306-15.834,14.778
			c-3.298,3.791-6.368,7.916-9.118,12.25c-2.826,4.527-5.278,9.222-7.25,13.875c-2.333,5.514-4.153,11.167-5.417,16.834
			l-1.438,6.514L-163.59,144.419z"/>
	</g>
	<g id="Line">
		<path d="M152.777-40.862c-6.876,0-12.445-5.569-12.445-12.444v-99.557c0-6.875,5.569-12.445,12.445-12.445
			c6.875,0,12.444,5.569,12.444,12.445v99.557C165.222-46.432,159.652-40.862,152.777-40.862z"/>
	</g>
	<g id="Line-Copy-4">
		<path d="M202.556-90.641h-99.558c-6.875,0-12.444-5.569-12.444-12.444s5.569-12.445,12.444-12.445h99.558
			c6.875,0,12.444,5.57,12.444,12.445S209.431-90.641,202.556-90.641z"/>
	</g>
</g>
</svg>
