<?xml version="1.0" encoding="UTF-8" standalone="no"?>
<svg width="18px" height="30px" viewBox="0 0 18 30" version="1.1" xmlns="http://www.w3.org/2000/svg" xmlns:xlink="http://www.w3.org/1999/xlink">
    <!-- Generator: Sketch 39.1 (31720) - http://www.bohemiancoding.com/sketch -->
    <title>Icon_black_Phone_18x30</title>
    <desc>Created with Sketch.</desc>
    <defs></defs>
    <g id="A" stroke="none" stroke-width="1" fill="none" fill-rule="evenodd">
        <g id="Icon_black_Phone_18x30">
            <path d="M1,27.0979966 C1,28.1436157 1.93048901,29 3.06892025,29 L14.9310798,29 C16.069511,29 17,28.1436157 17,27.0979966 L17,2.90200338 C17,1.85541878 16.069511,1 14.9310798,1 L3.06892025,1 C1.93048901,1 1,1.85541878 1,2.90200338 L1,27.0979966 L1,27.0979966 Z" id="Stroke-48" stroke="#000000" stroke-width="1.5" stroke-linecap="round" stroke-linejoin="round"></path>
            <path d="M9,25 C8.44790739,25 8,25.4479074 8,26 C8,26.5520926 8.44790739,27 9,27 C9.55209261,27 10,26.5520926 10,26 C10,25.4479074 9.55209261,25 9,25" id="Fill-49" fill="#000000"></path>
            <path d="M2,7 L16,7" id="Stroke-50" stroke="#000000" stroke-width="1.5" stroke-linecap="round" stroke-linejoin="round"></path>
            <path d="M2,23 L16,23" id="Path" stroke="#000000" stroke-width="1.5" stroke-linecap="round" stroke-linejoin="round"></path>
            <path d="M11,4 L7,4" id="Stroke-51" stroke="#000000" stroke-linecap="round" stroke-linejoin="round"></path>
        </g>
    </g>
</svg>