<?xml version="1.0" encoding="UTF-8" standalone="no"?>
<svg width="28px" height="28px" viewBox="0 0 28 28" version="1.1" xmlns="http://www.w3.org/2000/svg" xmlns:xlink="http://www.w3.org/1999/xlink">
    <!-- Generator: Sketch 39.1 (31720) - http://www.bohemiancoding.com/sketch -->
    <title>Icon_black_Plus_28x28</title>
    <desc>Created with Sketch.</desc>
    <defs></defs>
    <g id="A" stroke="none" stroke-width="1" fill="none" fill-rule="evenodd">
        <g id="Icon_black_Plus_28x28" fill="#000000">
            <path d="M1.64705882,15.3101176 L1.64705882,12.6917647 L12.6927059,12.6927059 L12.6908235,1.64705882 L15.3101176,1.64705882 L15.3157647,12.6927059 L26.3529412,12.6917647 L26.3529412,15.3101176 L15.3157647,15.3101176 L15.3101176,26.3529412 L12.6908235,26.3529412 L12.6927059,15.3101176 L1.64705882,15.3101176 Z M27.1764706,11.0447059 L16.9571765,11.0447059 L16.9571765,0.823529412 C16.9571765,0.368941176 16.5882353,0 16.1336471,0 L11.8672941,0 C11.4127059,0 11.0437647,0.368941176 11.0437647,0.823529412 L11.0437647,11.0447059 L0.823529412,11.0447059 C0.368941176,11.0447059 0,11.4127059 0,11.8682353 L0,16.1336471 C0,16.5882353 0.368941176,16.9571765 0.823529412,16.9571765 L11.0437647,16.9571765 L11.0437647,27.1764706 C11.0437647,27.632 11.4127059,28 11.8672941,28 L16.1336471,28 C16.5882353,28 16.9571765,27.632 16.9571765,27.1764706 L16.9571765,16.9571765 L27.1764706,16.9571765 C27.6310588,16.9571765 28,16.5882353 28,16.1336471 L28,11.8682353 C28,11.4127059 27.6310588,11.0447059 27.1764706,11.0447059 L27.1764706,11.0447059 Z" id="Plus"></path>
        </g>
    </g>
</svg>