<?xml version="1.0" encoding="UTF-8" standalone="no"?>
<svg width="26px" height="22px" viewBox="0 0 26 22" version="1.1" xmlns="http://www.w3.org/2000/svg" xmlns:xlink="http://www.w3.org/1999/xlink">
    <!-- Generator: Sketch 39.1 (31720) - http://www.bohemiancoding.com/sketch -->
    <title>Icon_black_Speach_26x22</title>
    <desc>Created with Sketch.</desc>
    <defs></defs>
    <g id="A" stroke="none" stroke-width="1" fill="none" fill-rule="evenodd">
        <g id="Icon_black_Speach_26x22" stroke="#000000" stroke-width="1.5">
            <path d="M14.3513047,16.4658695 L18.4753281,20.7652586 C18.8562319,21.1623596 19.1650155,21.0433549 19.1650155,20.4791349 L19.1650155,17.0547006 C19.1650155,16.5944976 19.522501,16.2209996 19.9650149,16.2209996 L21.2724426,16.2209996 C22.9711842,16.1905099 23.5554124,15.955168 23.695298,15.8837079 C23.9503835,15.7512686 24.3179261,15.499729 24.5912973,15.0728741 C24.8582686,14.6584056 25.0018113,14.1076864 24.9999827,13.5169497 L24.9999827,3.70690828 C24.9826113,3.12569953 24.8152972,2.65596853 24.6772401,2.36155295 C24.5492402,2.09476861 24.3087832,1.71078971 23.8982693,1.42685495 C23.506041,1.15054259 22.9821556,1 22.4180417,1 L3.59565528,1 C3.01782712,1 2.4930275,1.15054259 2.10445635,1.42399655 C1.63999954,1.74890176 1.31359977,2.23006638 1.13348562,2.85796239 C1.07679994,3.05900345 1.00548571,3.37247505 1,3.71071948 L1,13.5131385 C1.01645713,14.0953 1.18468558,14.5659838 1.32274263,14.8594466 C1.44982825,15.126231 1.6911995,15.5092571 2.10079921,15.7941446 C2.49394178,16.070457 3.01874141,16.2209996 3.581941,16.2209996 C3.581941,16.2209996 14.2013619,16.3086573 14.3513047,16.4658695 Z" id="Chat-Bubble"></path>
        </g>
    </g>
</svg>