<?xml version="1.0" encoding="utf-8"?>
<!-- Generator: Adobe Illustrator 16.0.0, SVG Export Plug-In . SVG Version: 6.00 Build 0)  -->
<!DOCTYPE svg PUBLIC "-//W3C//DTD SVG 1.1//EN" "http://www.w3.org/Graphics/SVG/1.1/DTD/svg11.dtd">
<svg version="1.1" id="Layer_1" xmlns="http://www.w3.org/2000/svg" xmlns:xlink="http://www.w3.org/1999/xlink" x="0px" y="0px"
	 width="400px" height="400px" viewBox="-187 -189 400 400" enable-background="new -187 -189 400 400" xml:space="preserve">
<title>Icon_black_Speach_26x22</title>
<desc>Created with Sketch.</desc>
<g id="A">
	<g id="Icon_black_Speach_26x22">
		<g id="Chat-Bubble">
			<path d="M105.218,179.611c-0.015,0-0.015,0-0.015,0c-5.178,0-10.172-2.436-14.798-7.244l-61.918-64.584
				c-18.773-1.424-107.797-2.65-163.319-3.109c-11.137,0-21.791-3.141-29.902-8.84c-8.517-5.912-13.442-13.725-16.062-19.225
				c-2.658-5.637-5.882-14.676-6.196-25.826L-187-103.323c0.084-5.393,0.935-10.899,2.528-16.567
				c3.6-12.538,10.263-22.258,19.814-28.944c8.035-5.652,18.75-8.777,30.14-8.777h295.25c11.244,0,21.906,3.14,29.994,8.839
				c8.41,5.829,13.373,13.642,16.039,19.156c2.695,5.752,5.897,14.767,6.234,25.881V50.508c0.03,11.473-2.896,22.41-8.272,30.76
				c-5.698,8.898-13.235,14.063-18.551,16.803c-5.483,2.789-17.341,6.145-43.198,6.604h-20.727l-0.781,55.023
				c0,4.688-0.934,8.701-2.772,11.934C115.834,176.625,110.794,179.611,105.218,179.611z M-134.518-134.083
				c-6.587,0-12.493,1.601-16.621,4.504c-5.124,3.584-8.609,8.854-10.7,16.123c-1.011,3.6-1.585,7.191-1.631,10.316V50.445
				c0.199,6.756,2.251,12.516,3.937,16.084c1.126,2.359,3.723,6.863,8.272,10.02c4.236,2.971,10.087,4.596,16.529,4.596
				c171.645,1.424,172.978,2.818,177.436,7.475l55.178,57.553l0.061-40.182c0-13.693,10.907-24.846,24.311-24.846h20.512
				c25.199-0.445,32.613-3.982,32.69-4.014c2.175-1.119,6.418-3.799,9.467-8.578c2.972-4.596,4.58-10.984,4.55-18v-153.937
				c-0.215-6.74-2.268-12.522-3.952-16.122c-1.363-2.842-3.983-7.009-8.257-9.973c-4.243-2.987-10.095-4.604-16.529-4.604H-134.518z
				"/>
		</g>
	</g>
</g>
</svg>
