<?xml version="1.0" encoding="UTF-8" standalone="no"?>
<svg width="23px" height="23px" viewBox="0 0 23 23" version="1.1" xmlns="http://www.w3.org/2000/svg" xmlns:xlink="http://www.w3.org/1999/xlink">
    <!-- Generator: Sketch 39.1 (31720) - http://www.bohemiancoding.com/sketch -->
    <title>Icon_black_World_23x23</title>
    <desc>Created with Sketch.</desc>
    <defs></defs>
    <g id="A" stroke="none" stroke-width="1" fill="none" fill-rule="evenodd">
        <g id="Icon_black_World_23x23" fill="#000000">
            <path d="M19.9773339,17.4863563 C19.0325898,16.9873118 18.1188208,16.5046152 17.1826809,16.0107332 C17.5853587,14.7605405 17.8082082,13.4397932 17.8684378,12.0717228 L21.8599389,12.0717228 C21.7437818,14.0790865 21.1053482,15.8825303 19.9773339,17.4863563 L19.9773339,17.4863563 Z M13.9122141,21.597451 C14.3045668,21.1104524 14.6857341,20.6742186 15.0221594,20.2070096 C15.371491,19.7234526 15.6993121,19.2209664 15.9961579,18.703853 C16.2878412,18.1962042 16.52962,17.6601615 16.8221638,17.0810977 C17.6223569,17.5044252 18.4259918,17.9294735 19.2735081,18.3768927 C17.7798143,20.015996 16.0322957,21.0657104 13.9122141,21.597451 L13.9122141,21.597451 Z M12.0726302,21.7600707 L12.0726302,16.0976358 C13.3219641,16.1337735 14.5205329,16.3600644 15.7216831,16.7343478 C14.8922356,18.6883654 13.7005501,20.3481188 12.0726302,21.7600707 L12.0726302,21.7600707 Z M12.0777928,12.0837687 L16.7352611,12.0837687 C16.7163318,13.3029862 16.4797155,14.4809035 16.1372673,15.5865453 C14.7614513,15.3473481 13.433819,15.1167551 12.0777928,14.8809995 L12.0777928,12.0837687 Z M12.0795136,1.35861271 C13.6712957,2.73700821 14.8457727,4.35976346 15.6786619,6.2759225 C14.4998828,6.64848508 13.3159411,6.85842796 12.0795136,6.90489073 L12.0795136,1.35861271 Z M16.7318194,10.9239203 L12.0795136,10.9239203 L12.0795136,8.11722485 C13.4209127,7.88491101 14.7459637,7.65517842 16.1019899,7.42114373 C16.4556237,8.51301882 16.6974025,9.69007565 16.7318194,10.9239203 L16.7318194,10.9239203 Z M19.2717873,4.62133164 C18.4268522,5.06789049 17.6077297,5.501543 16.8161408,5.92056835 C16.3489313,5.09026145 15.951416,4.28662762 15.4618354,3.54408373 C14.9722549,2.80067941 14.3906091,2.11750461 13.8321947,1.3861462 C15.967764,1.89121371 17.7540016,2.95555531 19.2717873,4.62133164 L19.2717873,4.62133164 Z M19.9867986,5.53337861 C21.1105107,7.10881067 21.7351776,8.91655658 21.8633806,10.9239203 L17.9123194,10.9239203 C17.7927206,10.1134031 17.6954928,9.32697771 17.5543835,8.54829611 C17.4674808,8.07248293 17.3186277,7.60785523 17.1878434,7.14150669 C17.1525661,7.01416428 17.1577286,6.94619097 17.2945358,6.87907808 C18.1807713,6.44456514 19.0609837,5.9980063 19.9867986,5.53337861 L19.9867986,5.53337861 Z M10.9265472,10.9247807 L6.26907888,10.9247807 C6.29575198,9.70040071 6.54527458,8.52678556 6.89460621,7.42028331 C8.24116779,7.65345758 9.56621881,7.88319016 10.9265472,8.1189457 L10.9265472,10.9247807 Z M10.9205242,21.7540478 C9.30034819,20.3524209 8.11296481,18.6952488 7.27749433,16.7377895 C8.4683194,16.3557623 9.66774869,16.1406568 10.9205242,16.0959149 L10.9205242,21.7540478 Z M6.26391634,12.0768853 L10.9188034,12.0768853 L10.9188034,14.8809995 C9.57052092,15.1150342 8.23600526,15.3473481 6.86363099,15.5856849 C6.51860147,14.4903681 6.28714775,13.3124508 6.26391634,12.0768853 L6.26391634,12.0768853 Z M3.75320279,18.3657073 C4.56544185,17.934636 5.36907669,17.5078669 6.14431758,17.0965853 C6.60636459,17.9320547 6.99097355,18.7236427 7.46506648,19.4575823 C7.93915941,20.1923824 8.50273631,20.8686739 9.01038572,21.548407 C7.71200781,21.4985025 4.75301401,19.7380798 3.75320279,18.3657073 L3.75320279,18.3657073 Z M3.02528515,17.4846355 C1.89038756,15.8902741 1.26227896,14.0833887 1.13751766,12.0751645 L5.12901875,12.0751645 C5.1952713,13.4277473 5.40607487,14.7502154 5.81907778,16.0081519 C4.8889608,16.5003131 3.97605228,16.9821492 3.02528515,17.4846355 L3.02528515,17.4846355 Z M3.03044769,5.50498469 C3.72050673,5.87754727 4.38217181,6.24064521 5.04899943,6.59255767 C5.2632447,6.70527291 5.49641926,6.78185044 5.71066452,6.8954261 C5.76745242,6.92554085 5.83284455,7.04341862 5.81563609,7.09676476 C5.42156248,8.32200521 5.2142006,9.57994168 5.13590213,10.8628304 C5.13504171,10.8791784 5.12041452,10.894666 5.10492691,10.9247807 L1.13837809,10.9247807 C1.25797685,8.92171911 1.89038756,7.11655446 3.03044769,5.50498469 L3.03044769,5.50498469 Z M9.18074942,1.41281927 C7.96239083,2.74991453 6.96430045,4.22295642 6.24584746,5.95240395 C5.39747064,5.50412427 4.57748777,5.07133217 3.72652968,4.62219207 C5.24775709,2.95211362 7.03657596,1.88691161 9.18074942,1.41281927 L9.18074942,1.41281927 Z M10.9239659,1.35689186 L10.9239659,6.90316989 C9.69098011,6.86186965 8.50789884,6.64848508 7.32051546,6.27678292 C8.15254425,4.35890304 9.32788171,2.73356652 10.9239659,1.35689186 L10.9239659,1.35689186 Z M11.5099138,6.90295215e-06 C5.1651565,-0.00687647034 0.0163868356,5.13500338 3.88035478e-05,11.4961007 C-0.0163092285,17.8158978 5.13504171,22.9792882 11.4754969,22.9999383 C17.8107895,23.0205884 22.9974178,17.8528959 22.999999,11.5167508 C23.0025803,5.16425771 17.8581127,0.0077506979 11.5099138,6.90295215e-06 L11.5099138,6.90295215e-06 Z" id="Globe"></path>
        </g>
    </g>
</svg>